<svg xmlns="http://www.w3.org/2000/svg" xmlns:xlink="http://www.w3.org/1999/xlink" viewBox="0 0 369 140"><defs><linearGradient id="linear-gradient" x1="310.02" y1="59.47" x2="-129.23" y2="129.3" gradientTransform="translate(105.6 -6.8) scale(0.87 0.81)" gradientUnits="userSpaceOnUse"><stop offset="0" stop-color="#662d91"/><stop offset="1" stop-color="#6e0bc4"/></linearGradient></defs><title>BANNERS</title><g style="isolation:isolate"><g id="Layer_1" data-name="Layer 1"><rect width="369" height="140" fill="url(#linear-gradient)"/><path d="M369,0H285.1c-4.2,70.7-57.8,116.4-95.4,140H369Z" fill="#8625ce" opacity="0.2" style="mix-blend-mode:multiply"/><path d="M326.8,117.3l-13-7.4c-3.1-1.9-6.4-3.5-9.4-5.6a14.7,14.7,0,0,0-9.6-2.6c-4.1.2-8.3,0-12.4,0-10.2-.1-17.6-7.5-17.7-17.6V80L239.2,94.5l5.7-15.3a22.4,22.4,0,0,1-3.9-.8,16.8,16.8,0,0,1-12.6-15.5c-.3-7-.3-14,.1-21a16.7,16.7,0,0,1,17-15.8c13.1-.2,26.1-.1,39.2.1a17.3,17.3,0,0,1,16.9,16.9c.1,1.7,0,3.5,0,5.4,6.1,0,12,.4,17.7,0a17.8,17.8,0,0,1,18.8,18.9c-.2,5.7,0,11.3-.1,17a17.2,17.2,0,0,1-14.9,17.2l-1.9.4ZM248.1,83.9l2.6-1.3c4.1-2.3,8.2-4.7,12.4-6.9a8.8,8.8,0,0,1,4.2-1.1c5.9-.1,11.8.1,17.7-.1s11.5-4.6,11.7-11.3.4-13.5.3-20.2-5.2-12.1-12.4-12.1l-38.9-.2c-7.7,0-12.6,4.8-12.7,12.6,0,6-.1,12.1,0,18.2,0,8,4.7,12.8,12.8,12.9h5.8Zm21.3-4.6c0,2.5-.2,4.6,0,6.6a11.3,11.3,0,0,0,10.4,10.9,39.5,39.5,0,0,0,8.4.2c8.8-.9,16.8.9,23.8,6.4,1.2.9,2.6,1.5,3.9,2.3l2,.8-3.3-9.3H321c7.5-.2,12.2-5,12.3-12.5s.1-12.6.1-18.9-5-12.5-12.7-12.6h-17l-2.1.2v8c-.1,10.6-7.7,18.2-18.3,18.1Z" fill="#bfa2ed"/><path d="M248.1,83.9l3.5-9.5h-5.8c-8.1-.1-12.8-4.9-12.8-12.9-.1-6.1,0-12.2,0-18.2.1-7.8,5-12.6,12.7-12.6l38.9.2c7.2,0,12.3,4.9,12.4,12.1s0,13.5-.3,20.2-5,11.2-11.7,11.3-11.8,0-17.7.1a8.8,8.8,0,0,0-4.2,1.1c-4.2,2.2-8.3,4.6-12.4,6.9Z" fill="#fff"/><path d="M269.4,79.3h13.9c10.6.1,18.2-7.5,18.3-18.1v-8l2.1-.2h17c7.7.1,12.6,5,12.7,12.6s0,12.6-.1,18.9S328.5,97,321,97.2h-6.4l3.3,9.3-2-.8c-1.3-.8-2.7-1.4-3.9-2.3-7-5.5-15-7.3-23.8-6.4a39.5,39.5,0,0,1-8.4-.2,11.3,11.3,0,0,1-10.4-10.9C269.2,83.9,269.4,81.8,269.4,79.3Z" fill="#fff"/><rect x="242.7" y="43.2" width="45.3" height="4.2" fill="#bfa2ed"/><rect x="242.7" y="54.3" width="31.3" height="4.2" fill="#bfa2ed"/><rect x="301.5" y="72.2" width="27.8" height="4.2" fill="#bfa2ed"/><rect x="301.5" y="83.3" width="19.2" height="4.2" fill="#bfa2ed"/><path d="M329.3,56.1,288.4,97c8.7-.9,16.6.9,23.6,6.4,1.2.9,2.6,1.5,3.9,2.3l2,.8-3.3-9.3H321c7.5-.2,12.2-5,12.3-12.5s.1-12.6.1-18.9A12.2,12.2,0,0,0,329.3,56.1Z" fill="#bfa2ed" opacity="0.2"/><path d="M296.5,39.6,241.2,73.7a16.4,16.4,0,0,0,4.6.7h5.8l-3.5,9.5,2.6-1.3c4.1-2.3,8.2-4.7,12.4-6.9a8.8,8.8,0,0,1,4.2-1.1c5.9-.1,11.8.1,17.7-.1s11.5-4.6,11.7-11.3.4-13.5.3-20.2A12.7,12.7,0,0,0,296.5,39.6Z" fill="#bfa2ed" opacity="0.2"/></g></g></svg>