<svg xmlns="http://www.w3.org/2000/svg" xmlns:xlink="http://www.w3.org/1999/xlink" viewBox="0 0 369 140"><defs><linearGradient id="linear-gradient" x1="-121.11" y1="142.38" x2="301.89" y2="142.38" gradientTransform="translate(105.6 -45.9) scale(0.87 0.81)" gradientUnits="userSpaceOnUse"><stop offset="0" stop-color="#3d279d"/><stop offset="1" stop-color="#201564"/></linearGradient><linearGradient id="linear-gradient-2" x1="242.68" y1="104.23" x2="242.68" y2="53.98" gradientUnits="userSpaceOnUse"><stop offset="0" stop-color="#fdfeff" stop-opacity="0"/><stop offset="1" stop-color="#fdfeff"/></linearGradient><linearGradient id="linear-gradient-3" x1="269.32" y1="97.16" x2="269.32" y2="68.41" xlink:href="#linear-gradient-2"/><linearGradient id="linear-gradient-4" x1="295.96" y1="104.23" x2="295.96" y2="53.98" xlink:href="#linear-gradient-2"/><linearGradient id="linear-gradient-5" x1="278.2" y1="104.23" x2="278.2" y2="53.98" xlink:href="#linear-gradient-2"/><linearGradient id="linear-gradient-6" x1="287.08" y1="97.16" x2="287.08" y2="68.41" xlink:href="#linear-gradient-2"/><linearGradient id="linear-gradient-7" x1="251.56" y1="97.16" x2="251.56" y2="68.41" xlink:href="#linear-gradient-2"/><linearGradient id="linear-gradient-8" x1="260.85" y1="104.44" x2="260.85" y2="53.32" xlink:href="#linear-gradient-2"/><linearGradient id="linear-gradient-9" x1="340.37" y1="97.16" x2="340.37" y2="68.41" xlink:href="#linear-gradient-2"/><linearGradient id="linear-gradient-10" x1="304.85" y1="97.16" x2="304.85" y2="68.41" xlink:href="#linear-gradient-2"/><linearGradient id="linear-gradient-11" x1="331.49" y1="104.23" x2="331.49" y2="53.98" xlink:href="#linear-gradient-2"/><linearGradient id="linear-gradient-12" x1="349.25" y1="104.23" x2="349.25" y2="53.98" xlink:href="#linear-gradient-2"/><linearGradient id="linear-gradient-13" x1="313.73" y1="104.23" x2="313.73" y2="53.98" xlink:href="#linear-gradient-2"/><linearGradient id="linear-gradient-14" x1="322.61" y1="97.16" x2="322.61" y2="68.41" xlink:href="#linear-gradient-2"/><linearGradient id="linear-gradient-15" x1="238.24" y1="68.13" x2="353.69" y2="68.13" gradientUnits="userSpaceOnUse"><stop offset="0" stop-color="#06edf9"/><stop offset="1" stop-color="#14f4c9"/></linearGradient><linearGradient id="linear-gradient-16" x1="238.24" y1="92.27" x2="360.11" y2="92.27" xlink:href="#linear-gradient-15"/><linearGradient id="linear-gradient-17" x1="325.89" y1="-39.92" x2="375.22" y2="-39.92" gradientTransform="translate(278.2 418.2) rotate(-90)" xlink:href="#linear-gradient-15"/></defs><title>BANNERS</title><g style="isolation:isolate"><g id="Layer_1" data-name="Layer 1"><rect width="369" height="140" fill="url(#linear-gradient)"/><path d="M369,61.5h-.2v-.2H206.5v.2h-.1v78.3h.1v.2H368.8v-.2h.2Zm-94.6,35h13.1v8.3H274.4Zm-.4,8.3H260.9V96.5H274Zm13.9-8.3H301v8.3H287.9Zm13.6,0h13v8.3h-13Zm0-.4V87.9h13v8.2Zm-.5,0H287.9V87.9H301Zm-13.5,0H274.4V87.9h13.1Zm-13.5,0H260.9V87.9H274Zm-13.5,0H247.4V87.9h13.1Zm0,.4v8.3H247.4V96.5Zm0,8.7v8.3H247.4v-8.3Zm.4,0H274v8.3H260.9Zm13.5,0h13.1v8.3H274.4Zm13.5,0H301v8.3H287.9Zm13.6,0h13v8.3h-13Zm13.5,0h13v8.3H315Zm0-.4V96.5h13v8.3Zm0-8.7V87.9h13v8.2Zm0-8.7V79.2h13v8.2Zm-.5,0h-13V79.2h13Zm-13.5,0H287.9V79.2H301Zm-13.5,0H274.4V79.2h13.1Zm-13.5,0H260.9V79.2H274Zm-13.5,0H247.4V79.2h13.1Zm-13.5,0H233.9V79.2H247Zm0,.5v8.2H233.9V87.9Zm0,8.6v8.3H233.9V96.5Zm0,8.7v8.3H233.9v-8.3Zm0,8.7v8.2H233.9v-8.2Zm.4,0h13.1v8.2H247.4Zm13.5,0H274v8.2H260.9Zm13.5,0h13.1v8.2H274.4Zm13.5,0H301v8.2H287.9Zm13.6,0h13v8.2h-13Zm13.5,0h13v8.2H315Zm13.5,0h13v8.2h-13Zm0-.4v-8.3h13v8.3Zm0-8.7V96.5h13v8.3Zm0-8.7V87.9h13v8.2Zm0-8.7V79.2h13v8.2Zm0-8.7V70.5h13v8.2Zm-.5,0H315V70.5h13Zm-13.5,0h-13V70.5h13Zm-13.5,0H287.9V70.5H301Zm-13.5,0H274.4V70.5h13.1Zm-13.5,0H260.9V70.5H274Zm-13.5,0H247.4V70.5h13.1Zm-13.5,0H233.9V70.5H247Zm-13.6,0h-13V70.5h13Zm0,.5v8.2h-13V79.2Zm0,8.7v8.2h-13V87.9Zm0,8.6v8.3h-13V96.5Zm0,8.7v8.3h-13v-8.3Zm0,8.7v8.2h-13v-8.2Zm0,8.7v8.2h-13v-8.2Zm.5,0H247v8.2H233.9Zm13.5,0h13.1v8.2H247.4Zm13.5,0H274v8.2H260.9Zm13.5,0h13.1v8.2H274.4Zm13.5,0H301v8.2H287.9Zm13.6,0h13v8.2h-13Zm13.5,0h13v8.2H315Zm13.5,0h13v8.2h-13Zm13.5,0h13v8.2H342Zm0-.5v-8.2h13v8.2Zm0-8.6v-8.3h13v8.3Zm0-8.7V96.5h13v8.3Zm0-8.7V87.9h13v8.2Zm0-8.7V79.2h13v8.2Zm0-8.7V70.5h13v8.2Zm0-8.7V61.8h13V70Zm-.5,0h-13V61.8h13ZM328,70H315V61.8h13Zm-13.5,0h-13V61.8h13ZM301,70H287.9V61.8H301Zm-13.5,0H274.4V61.8h13.1ZM274,70H260.9V61.8H274Zm-13.5,0H247.4V61.8h13.1ZM247,70H233.9V61.8H247Zm-13.6,0h-13V61.8h13Zm-13.5,0h-13V61.8h13Zm0,.5v8.2h-13V70.5Zm0,8.7v8.2h-13V79.2Zm0,8.7v8.2h-13V87.9Zm0,8.6v8.3h-13V96.5Zm0,8.7v8.3h-13v-8.3Zm0,8.7v8.2h-13v-8.2Zm0,8.7v8.2h-13v-8.2Zm0,8.7v8.2h-13v-8.2Zm.5,0h13v8.2h-13Zm13.5,0H247v8.2H233.9Zm13.5,0h13.1v8.2H247.4Zm13.5,0H274v8.2H260.9Zm13.5,0h13.1v8.2H274.4Zm13.5,0H301v8.2H287.9Zm13.6,0h13v8.2h-13Zm13.5,0h13v8.2H315Zm13.5,0h13v8.2h-13Zm13.5,0h13v8.2H342Zm13.5,0h13v8.2h-13Zm0-.5v-8.2h13v8.2Zm0-8.7v-8.2h13v8.2Zm0-8.6v-8.3h13v8.3Zm0-8.7V96.5h13v8.3Zm0-8.7V87.9h13v8.2Zm0-8.7V79.2h13v8.2Zm0-8.7V70.5h13v8.2Zm0-8.7V61.8h13V70Z" fill="#517bb7" opacity="0.1"/><path d="M369,.2h-.2V0H206.5V.2h-.1V78.5h.1v.2H368.8v-.2h.2Zm-94.6,35h13.1v8.3H274.4Zm-.4,8.3H260.9V35.2H274Zm13.9-8.3H301v8.3H287.9Zm13.6,0h13v8.3h-13Zm0-.4V26.5h13v8.3Zm-.5,0H287.9V26.5H301Zm-13.5,0H274.4V26.5h13.1Zm-13.5,0H260.9V26.5H274Zm-13.5,0H247.4V26.5h13.1Zm0,.4v8.3H247.4V35.2Zm0,8.7v8.3H247.4V43.9Zm.4,0H274v8.3H260.9Zm13.5,0h13.1v8.3H274.4Zm13.5,0H301v8.3H287.9Zm13.6,0h13v8.3h-13Zm13.5,0h13v8.3H315Zm0-.4V35.2h13v8.3Zm0-8.7V26.5h13v8.3Zm0-8.7V17.9h13v8.2Zm-.5,0h-13V17.9h13Zm-13.5,0H287.9V17.9H301Zm-13.5,0H274.4V17.9h13.1Zm-13.5,0H260.9V17.9H274Zm-13.5,0H247.4V17.9h13.1Zm-13.5,0H233.9V17.9H247Zm0,.4v8.3H233.9V26.5Zm0,8.7v8.3H233.9V35.2Zm0,8.7v8.3H233.9V43.9Zm0,8.7v8.2H233.9V52.6Zm.4,0h13.1v8.2H247.4Zm13.5,0H274v8.2H260.9Zm13.5,0h13.1v8.2H274.4Zm13.5,0H301v8.2H287.9Zm13.6,0h13v8.2h-13Zm13.5,0h13v8.2H315Zm13.5,0h13v8.2h-13Zm0-.4V43.9h13v8.3Zm0-8.7V35.2h13v8.3Zm0-8.7V26.5h13v8.3Zm0-8.7V17.9h13v8.2Zm0-8.7V9.2h13v8.2Zm-.5,0H315V9.2h13Zm-13.5,0h-13V9.2h13Zm-13.5,0H287.9V9.2H301Zm-13.5,0H274.4V9.2h13.1Zm-13.5,0H260.9V9.2H274Zm-13.5,0H247.4V9.2h13.1Zm-13.5,0H233.9V9.2H247Zm-13.6,0h-13V9.2h13Zm0,.5v8.2h-13V17.9Zm0,8.6v8.3h-13V26.5Zm0,8.7v8.3h-13V35.2Zm0,8.7v8.3h-13V43.9Zm0,8.7v8.2h-13V52.6Zm0,8.7v8.2h-13V61.3Zm.5,0H247v8.2H233.9Zm13.5,0h13.1v8.2H247.4Zm13.5,0H274v8.2H260.9Zm13.5,0h13.1v8.2H274.4Zm13.5,0H301v8.2H287.9Zm13.6,0h13v8.2h-13Zm13.5,0h13v8.2H315Zm13.5,0h13v8.2h-13Zm13.5,0h13v8.2H342Zm0-.5V52.6h13v8.2Zm0-8.6V43.9h13v8.3Zm0-8.7V35.2h13v8.3Zm0-8.7V26.5h13v8.3Zm0-8.7V17.9h13v8.2Zm0-8.7V9.2h13v8.2Zm0-8.7V.5h13V8.7Zm-.5,0h-13V.5h13ZM328,8.7H315V.5h13Zm-13.5,0h-13V.5h13ZM301,8.7H287.9V.5H301Zm-13.5,0H274.4V.5h13.1ZM274,8.7H260.9V.5H274Zm-13.5,0H247.4V.5h13.1ZM247,8.7H233.9V.5H247Zm-13.6,0h-13V.5h13Zm-13.5,0h-13V.5h13Zm0,.5v8.2h-13V9.2Zm0,8.7v8.2h-13V17.9Zm0,8.6v8.3h-13V26.5Zm0,8.7v8.3h-13V35.2Zm0,8.7v8.3h-13V43.9Zm0,8.7v8.2h-13V52.6Zm0,8.7v8.2h-13V61.3Zm0,8.7v8.2h-13V70Zm.5,0h13v8.2h-13Zm13.5,0H247v8.2H233.9Zm13.5,0h13.1v8.2H247.4Zm13.5,0H274v8.2H260.9Zm13.5,0h13.1v8.2H274.4Zm13.5,0H301v8.2H287.9Zm13.6,0h13v8.2h-13ZM315,70h13v8.2H315Zm13.5,0h13v8.2h-13ZM342,70h13v8.2H342Zm13.5,0h13v8.2h-13Zm0-.5V61.3h13v8.2Zm0-8.7V52.6h13v8.2Zm0-8.6V43.9h13v8.3Zm0-8.7V35.2h13v8.3Zm0-8.7V26.5h13v8.3Zm0-8.7V17.9h13v8.2Zm0-8.7V9.2h13v8.2Zm0-8.7V.5h13V8.7Z" fill="#517bb7" opacity="0.1"/><path d="M247.1,92.3V71.4c-4.4,0-4.4-6.9-8.9-6.9V92.3Z" fill="url(#linear-gradient-2)" style="mix-blend-mode:overlay"/><path d="M273.8,92.3V60.7h0c-4.5,0-4.5,27.6-8.9,27.6v4Z" opacity="0.41" fill="url(#linear-gradient-3)" style="mix-blend-mode:overlay"/><path d="M300.4,92.3V54.6h0c-4.4,0-4.4,5.9-8.9,5.9V92.3Z" fill="url(#linear-gradient-4)" style="mix-blend-mode:overlay"/><path d="M282.6,92.3V67.5h0c-4.4,0-4.4-6.8-8.8-6.8V92.3Z" fill="url(#linear-gradient-5)" style="mix-blend-mode:overlay"/><path d="M291.5,92.3V60.5h0c-4.4,0-4.4,7-8.9,7V92.3Z" opacity="0.41" fill="url(#linear-gradient-6)" style="mix-blend-mode:overlay"/><path d="M256,92.3V59.2h0c-4.4,0-4.4,12.2-8.9,12.2h0V92.3Z" opacity="0.41" fill="url(#linear-gradient-7)" style="mix-blend-mode:overlay"/><path d="M265.7,92.3V88.2h0c-4.9,0-4.9-29.6-9.7-29.6V92.3Z" fill="url(#linear-gradient-8)" style="mix-blend-mode:overlay"/><path d="M344.8,92.3V67.4h0c-4.4,0-4.4,4-8.9,4V92.3Z" opacity="0.41" fill="url(#linear-gradient-9)" style="mix-blend-mode:overlay"/><path d="M309.3,92.3V48h0c-4.5,0-4.5,6.6-8.9,6.6V92.3Z" opacity="0.41" fill="url(#linear-gradient-10)" style="mix-blend-mode:overlay"/><path d="M335.9,92.3V71.4h0c-4.4,0-4.4-12-8.9-12V92.3Z" fill="url(#linear-gradient-11)" style="mix-blend-mode:overlay"/><path d="M353.7,92.3V71.4h0c-4.5,0-4.5-4-8.9-4V92.3Z" fill="url(#linear-gradient-12)" style="mix-blend-mode:overlay"/><path d="M318.2,92.3V74.6h0c-4.5,0-4.5-26.6-8.9-26.6V92.3Z" fill="url(#linear-gradient-13)" style="mix-blend-mode:overlay"/><path d="M327,92.3V59.4h0c-4.4,0-4.4,15.2-8.8,15.2V92.3Z" opacity="0.41" fill="url(#linear-gradient-14)" style="mix-blend-mode:overlay"/><path d="M353.7,71.4a.4.4,0,0,0-.3-.4,5.4,5.4,0,0,1-3.9-1.9c-1.2-1-2.3-2.1-4.7-2.1s-3.5,1.1-4.7,2.1a5.6,5.6,0,0,1-4.2,1.9c-2,0-3-2.9-4.1-5.7s-2.3-6.2-4.8-6.2-3.5,3.8-4.7,7.8-2.2,7.3-4.1,7.3-3.2-7.2-4.1-13c-1.3-7.3-2.3-13.5-4.8-13.5s-3.6,1.7-4.7,3.4-2.2,3.2-4.2,3.2-3.6,1.5-4.7,3.1-2.1,2.8-4.2,2.8-3.6,1.9-4.7,3.6-2.1,3.4-4.2,3.4-3-1.6-4.1-3.3-2.3-3.6-4.7-3.6-3.6,6.5-4.8,14.1c-1,6-2.2,13.5-4.1,13.5s-3.2-7.9-4.1-14.2c-1.2-8-2.3-14.9-4.8-14.9s-3.6,3.2-4.8,6.4-2.1,5.8-4.1,5.8-3-1.5-4.1-3.2-2.4-3.6-4.8-3.6v.7c2.1,0,3.1,1.6,4.2,3.2s2.3,3.6,4.7,3.6,3.6-3.2,4.8-6.3,2.1-5.9,4.1-5.9,3.1,7.9,4.1,14.3c1.2,7.9,2.3,14.8,4.8,14.8s3.5-6.5,4.8-14.1c.9-6,2.1-13.5,4.1-13.5s3,1.6,4.1,3.3,2.3,3.5,4.7,3.5,3.6-1.8,4.8-3.6,2.1-3.3,4.1-3.3,3.6-1.6,4.7-3.1,2.2-2.8,4.2-2.8,3.6-1.8,4.7-3.5,2.1-3.2,4.2-3.2,3.1,7.2,4.1,13c1.2,7.3,2.3,13.6,4.8,13.6s3.6-3.8,4.7-7.8,2.2-7.4,4.1-7.4,3.1,3,4.2,5.8,2.3,6.2,4.7,6.2a6,6,0,0,0,4.7-2.1c1.1-.9,2.1-1.9,4.2-1.9s3.1,1,4.2,1.9a6.3,6.3,0,0,0,4.3,2.1c.2,0,.4-.1.4-.3Z" fill="url(#linear-gradient-15)"/><line x1="238.2" y1="92.3" x2="360.1" y2="92.3" fill="none" stroke-miterlimit="10" stroke-width="0.22" stroke="url(#linear-gradient-16)"/><line x1="238.2" y1="92.3" x2="238.2" y2="42.9" fill="none" stroke-miterlimit="10" stroke-width="0.22" stroke="url(#linear-gradient-17)"/><text transform="translate(233.8 64) rotate(-90)" font-size="6.62" fill="#e7f2ec" font-family="Heebo-Regular, Heebo"><tspan letter-spacing="-0.08em">T</tspan><tspan x="3.4" y="0">argets</tspan></text><text transform="translate(318.3 101.6)" font-size="6.62" fill="#e7f2ec" font-family="Heebo-Regular, Heebo">Achi<tspan x="13" y="0" letter-spacing="-0.01em">e</tspan><tspan x="16.5" y="0" letter-spacing="0em">vements</tspan></text></g></g></svg>