<svg xmlns="http://www.w3.org/2000/svg" viewBox="0 0 64 47.9"><title>messagesldpi</title><g id="Layer_2" data-name="Layer 2"><g id="Layer_1-2" data-name="Layer 1"><path d="M64,36.1c-1.3,3.1-3.6,4.3-7.1,3.8,0,2.2.1,4.2,0,6.3a7,7,0,0,1-.6,1.7,7.1,7.1,0,0,1-1.5-.8l-6.3-6.2a3.9,3.9,0,0,0-2.2-.9c-6.2-.1-12.3,0-18.5,0-3.9,0-5.7-1.9-5.7-5.8V31.9H16.8a2.3,2.3,0,0,0-1.3.8c-2.1,2.1-4.2,4.3-6.4,6.4-.4.4-1,.4-1.4.7a4.7,4.7,0,0,1-.6-1.5c-.1-2.1,0-4.2,0-6.5a16.1,16.1,0,0,1-2.2,0A4.9,4.9,0,0,1,0,27.1V4.9A5,5,0,0,1,5,0H37a4.8,4.8,0,0,1,4.9,5V8h1.7c4.6,0,9.2.2,13.8,0s5.4.9,6.6,3.9ZM9.1,36h.4c1.6-1.7,3.3-3.5,5.1-5.1a4,4,0,0,1,2.3-1h19c3,0,4.1-1,4.1-4V6.1c0-3-1-4.1-4-4.1H5.8C3.1,2,2,3.1,2,5.8c0,6.3.1,12.5,0,18.8-.1,4.7,1.1,5.7,5.3,5.4,1.4-.1,1.8.5,1.8,1.8S9.1,34.6,9.1,36ZM41.9,9.9V26.3c0,3.8-1.8,5.6-5.7,5.6H23.9v2.1c0,2.9,1.1,4,3.9,4,6,0,11.9.1,17.8-.1a5.6,5.6,0,0,1,4.8,2.1c1.3,1.5,2.9,2.9,4.7,4.6V39.5c0-1,.3-1.5,1.3-1.4h2.5A3,3,0,0,0,62,35V13a2.9,2.9,0,0,0-2.9-3Z" fill="#007b6b"/><path d="M9.1,36c0-1.4-.1-2.8,0-4.2S8.7,29.9,7.3,30c-4.2.3-5.4-.7-5.3-5.4.1-6.3,0-12.5,0-18.8C2,3.1,3.1,2,5.8,2H36c3,0,4,1.1,4,4.1V26c0,3-1.1,4-4.1,4h-19a4,4,0,0,0-2.3,1c-1.8,1.6-3.5,3.4-5.1,5.1ZM31,20a3.9,3.9,0,0,0,4-4,4.2,4.2,0,0,0-4.1-4.1,4.1,4.1,0,0,0-3.9,4A3.9,3.9,0,0,0,31,20ZM21,20a4,4,0,0,0,4.1-4,4.3,4.3,0,0,0-4.2-4.1,4.1,4.1,0,0,0-3.9,4A3.9,3.9,0,0,0,21,20ZM11,20a4.1,4.1,0,0,0,4.1-4.1,4.2,4.2,0,0,0-4.1-4A4,4,0,0,0,7,16,3.9,3.9,0,0,0,11,20Z" fill="#00a89a"/><path d="M41.9,9.9H59.1A2.9,2.9,0,0,1,62,13V35a3,3,0,0,1-3.1,3.1H56.4c-1-.1-1.3.4-1.3,1.4v5.2c-1.8-1.7-3.4-3.1-4.7-4.6A5.6,5.6,0,0,0,45.6,38c-5.9.2-11.8.1-17.8.1-2.8,0-3.9-1.1-3.9-4V32H36.2c3.9,0,5.7-1.8,5.7-5.6V9.9Z" fill="#defcf8"/><path d="M31,20a3.9,3.9,0,0,1-4-4.1,4.1,4.1,0,0,1,3.9-4A4.2,4.2,0,0,1,35,16,3.9,3.9,0,0,1,31,20Zm0-6.1a2.1,2.1,0,0,0-2,2,2,2,0,0,0,2,2.2,2.1,2.1,0,0,0,2-2A2.2,2.2,0,0,0,31,13.9Z" fill="#007b6b"/><path d="M21,20a3.9,3.9,0,0,1-4-4.1,4.1,4.1,0,0,1,3.9-4A4.3,4.3,0,0,1,25.1,16,4,4,0,0,1,21,20Zm2-4.1a2.2,2.2,0,0,0-2.1-2,2.1,2.1,0,0,0,.1,4.2A2.1,2.1,0,0,0,23,15.9Z" fill="#007b6b"/><path d="M11,20a3.9,3.9,0,0,1-4-4,4,4,0,0,1,4-4.1,4.2,4.2,0,0,1,4.1,4A4.1,4.1,0,0,1,11,20Zm2-3.9a2.1,2.1,0,0,0-2-2.2,2.2,2.2,0,0,0-2.1,2,2.3,2.3,0,0,0,2,2.2A2.2,2.2,0,0,0,13,16.1Z" fill="#007b6b"/><path d="M31,13.9a2.2,2.2,0,0,1,2,2.2,2.1,2.1,0,0,1-2,2,2,2,0,0,1-2-2.2A2.1,2.1,0,0,1,31,13.9Z" fill="#defcf8"/><path d="M23,15.9a2.1,2.1,0,0,1-2,2.2,2.1,2.1,0,0,1-.1-4.2A2.2,2.2,0,0,1,23,15.9Z" fill="#defcf8"/><path d="M13,16.1a2.2,2.2,0,0,1-2.1,2,2.3,2.3,0,0,1-2-2.2,2.2,2.2,0,0,1,2.1-2A2.1,2.1,0,0,1,13,16.1Z" fill="#defcf8"/></g></g></svg>