<svg xmlns="http://www.w3.org/2000/svg" viewBox="0 0 64 59.3"><title>Asset 6ldpi</title><g id="Layer_2" data-name="Layer 2"><g id="Layer_1-2" data-name="Layer 1"><path d="M21.8,49.3a7.5,7.5,0,0,1-3.5-6.9c0-1.4-.8-1.8-2.2-.9s-5.1,3.3-7.6,5L3.9,49.6A2.4,2.4,0,0,1,0,47.5V7A7.4,7.4,0,0,1,6.9,0h41a7.4,7.4,0,0,1,6.9,7.1V17c-.1.9.2,1.4,1.2,1.3,4.5-.5,8.1,4,8,8.3-.3,9.8-.1,19.6-.1,29.5,0,1.1,0,2.3-1.2,2.9s-2.2.1-3.1-.6L48.7,51.1a5.5,5.5,0,0,0-3-.9h-19a12.4,12.4,0,0,1-4.3-.6C22.2,49.5,21.9,49.6,21.8,49.3Z" fill="#007b6b"/><path d="M50.3,34.7c-.4,1.5-1.6,1.9-2.9,2a2.9,2.9,0,0,1-1.3.1H17.5a2.9,2.9,0,0,1-1.3-.1,2.7,2.7,0,0,0-2.1.6c-2.6,1.8-5.2,3.6-7.9,5.3-.5.3-.9,1-1.7.5a4.5,4.5,0,0,1-.1-2V7.9a4.7,4.7,0,0,1,.1-1.7c.7-2,2.5-1.5,4-1.7s.7-.1,1.1-.1H47.4a2.9,2.9,0,0,1,1.3.1,3.8,3.8,0,0,1,1.6,1.7c.2.3.1.7.1,1.1V33.6C50.4,34,50.5,34.4,50.3,34.7Z" fill="#defcf8"/><path d="M59.3,38.2c0,4.3.1,8.5,0,12.7,0,1.7-.1,1.8-1.6.8l-7.3-4.9a6.2,6.2,0,0,0-3.7-1.1h-21c-1.3,0-2.4-.2-2.8-1.7s-.1-2.8,2.1-2.8H46.4c5.5-.1,8.4-3,8.4-8.5V24.8c0-1-.1-2,1.4-2.1s2.9.6,3.1,1.9a23.5,23.5,0,0,1,.1,2.6v11Z" fill="#00a89a"/><path d="M17.5,15.9c-1.8.6-3.3,1.5-3.7,3.6a4.4,4.4,0,0,0,3.8,5.6,6.3,6.3,0,0,0,3.8-.3l-.6-1.1a2,2,0,0,1,.6-2.5,1.7,1.7,0,0,1,2.4-.3,26.5,26.5,0,0,1,5.6,5.5,2.2,2.2,0,0,1-.6,2.8l-4.1,4.1a2.4,2.4,0,0,1-3.3.4,2.1,2.1,0,0,1-.4-3c.9-1.4-.2-1.1-.8-1.1-2.8.2-5.5-.2-7.7-2.2s-4-6.2-2.9-9.5a9.7,9.7,0,0,1,8.6-6.5H36.6a9.7,9.7,0,0,1,9,8.2c.5,3.8-2.3,8.1-6.2,9.5a7.1,7.1,0,0,1-2.9.5,2,2,0,0,1-2.1-2,2,2,0,0,1,1.8-2.4h.7c2.8-.5,4.1-1.8,4.2-4.4s-1.1-3.9-3.7-4.6l-.4-.2a4.1,4.1,0,0,0-1.9-.2h-16A3,3,0,0,0,17.5,15.9Z" fill="#007b6b"/></g></g></svg>