<svg xmlns="http://www.w3.org/2000/svg" xmlns:xlink="http://www.w3.org/1999/xlink" viewBox="0 0 369 140.1"><defs><linearGradient id="linear-gradient" x1="307.62" y1="59.82" x2="-128.28" y2="129.13" gradientTransform="translate(106.3 -6.8) scale(0.87 0.81)" gradientUnits="userSpaceOnUse"><stop offset="0" stop-color="#4f2382"/><stop offset="0.99" stop-color="#9f6ff7"/></linearGradient><linearGradient id="linear-gradient-2" x1="377.65" y1="65.5" x2="222.93" y2="90.1" gradientUnits="userSpaceOnUse"><stop offset="0" stop-color="#4f2382"/><stop offset="0.99" stop-color="#a77bf8"/></linearGradient><linearGradient id="linear-gradient-3" x1="333.28" y1="23.2" x2="343.78" y2="23.2" gradientUnits="userSpaceOnUse"><stop offset="0" stop-color="#fff"/><stop offset="1" stop-color="#dab5f7"/></linearGradient><linearGradient id="linear-gradient-4" x1="343.78" y1="23.2" x2="354.28" y2="23.2" xlink:href="#linear-gradient-3"/><linearGradient id="linear-gradient-5" x1="333.64" y1="14.83" x2="343.78" y2="14.83" xlink:href="#linear-gradient-3"/><linearGradient id="linear-gradient-6" x1="343.78" y1="14.83" x2="353.93" y2="14.83" xlink:href="#linear-gradient-3"/><linearGradient id="New_Gradient_Swatch_1" x1="337.16" y1="7.02" x2="345.78" y2="22.55" gradientUnits="userSpaceOnUse"><stop offset="0" stop-color="#fff"/><stop offset="1"/></linearGradient><linearGradient id="linear-gradient-7" x1="336.86" y1="97.01" x2="327.14" y2="64.69" gradientUnits="userSpaceOnUse"><stop offset="0" stop-color="#612b51"/><stop offset="1" stop-color="#8c4c77"/></linearGradient><linearGradient id="linear-gradient-8" x1="333.2" y1="98.16" x2="331.17" y2="92.77" gradientUnits="userSpaceOnUse"><stop offset="0" stop-color="#ffcace"/><stop offset="1" stop-color="#fcebee"/></linearGradient><radialGradient id="radial-gradient" cx="299.55" cy="106.59" r="6.84" gradientUnits="userSpaceOnUse"><stop offset="0" stop-color="#fff"/><stop offset="1" stop-color="#f2f2f2"/></radialGradient><radialGradient id="radial-gradient-2" cx="299.55" cy="106.56" r="6.82" gradientUnits="userSpaceOnUse"><stop offset="0" stop-color="#fff"/><stop offset="1" stop-color="#fff"/></radialGradient><linearGradient id="linear-gradient-9" x1="239.05" y1="55.48" x2="258.08" y2="55.48" gradientTransform="translate(-11.3 85.3) rotate(-18)" xlink:href="#linear-gradient-3"/><linearGradient id="linear-gradient-10" x1="258.08" y1="55.48" x2="277.11" y2="55.48" gradientTransform="translate(-11.3 85.3) rotate(-18)" xlink:href="#linear-gradient-3"/><linearGradient id="linear-gradient-11" x1="239.69" y1="40.31" x2="258.08" y2="40.31" gradientTransform="translate(-11.3 85.3) rotate(-18)" xlink:href="#linear-gradient-3"/><linearGradient id="linear-gradient-12" x1="258.08" y1="40.31" x2="276.46" y2="40.31" gradientTransform="translate(-11.3 85.3) rotate(-18)" xlink:href="#linear-gradient-3"/><linearGradient id="New_Gradient_Swatch_1-2" x1="246.63" y1="26.3" x2="262.24" y2="54.44" gradientTransform="translate(-11.3 85.3) rotate(-18)" xlink:href="#New_Gradient_Swatch_1"/></defs><title>banner-3ldpi</title><g style="isolation:isolate"><g id="Layer_2" data-name="Layer 2"><g id="Layer_1-2" data-name="Layer 1"><rect y="0.1" width="369" height="140" rx="9.6" fill="url(#linear-gradient)"/><g opacity="0.1"><path d="M205.6.7a23.7,23.7,0,0,1,19.3,7.8c5.7,6.5,5.8,15.9,9.9,23.4,8,14.2,21,12.9,34.6,14,4.2.4,8.8,2.5,10.5,6.5,2.8,6.9-5.3,14.3-2.8,21.3,1.5,4.2,6.5,6.4,10.8,6s8.1-3,11.4-5.9,6-6.2,9.6-8.6c8.3-5.6,20.1-5.6,28.7,0s13.3,16.3,13.3,16.3c2.1,4.8,3.3,4.5,2.6-.8L344.7,9.6A11.2,11.2,0,0,0,333.9.1H212c-5.3,0-9.6.2-9.5.5s1,.4,2.1.2Z" fill="#fff"/></g><path d="M368.6,9.6A9.6,9.6,0,0,0,359.1,0H342c-5.3,0-9.5.9-9.4,2.1v1a23.9,23.9,0,0,1-10.1,18.2c-7.1,4.8-16.5,3.8-24.4,7-15.2,6.1-15.4,19.2-18.2,32.5-.9,4.2-3.6,8.5-7.7,9.6-7.3,1.9-13.6-7-20.9-5.4-4.3,1-7.1,5.6-7.2,10s2,8.4,4.4,12,5.4,6.8,7.4,10.6a26.6,26.6,0,0,1-3.6,28.5c-6.6,7.9-17.8,11.2-17.8,11.2-5,1.5-4.9,2.7.4,2.7H359.1a9.6,9.6,0,0,0,9.5-9.6Z" fill="url(#linear-gradient-2)"/><path d="M346.1,12.4l-2.3-.2-2.4.2a16,16,0,0,1,2.4,1.9A12.5,12.5,0,0,1,346.1,12.4Z" fill="#fbfafc"/><path d="M343.9,45.1c-.3,0-.5-.3-.6-.7s0-.6.3-.6a1.4,1.4,0,0,1,.6.7C344.3,44.9,344.2,45.2,343.9,45.1Z" fill="#603913"/><path d="M343.8,44.8h-.2l-9.9-14.8.3-.2,9.8,14.5,9.8-14.5.4.2L344,44.7Z" fill="#d7c3ed"/><path d="M343.8,44.8a.2.2,0,0,1-.2-.2l-4.8-14.7.4-.2,4.6,14.2,4.7-14.2.4.2L344,44.6A.2.2,0,0,1,343.8,44.8Z" fill="#d7c3ed"/><path d="M356.7,25.4a9.9,9.9,0,0,0-.2-1.7,5.7,5.7,0,0,0-.3-1.8,12.1,12.1,0,0,0-2.3-4.7c-3.8-4.2-10.1-2.9-10.1-2.9s-6.4-1.3-10.2,2.9a15.8,15.8,0,0,0-2.3,4.7l-.3,1.8a9.7,9.7,0,0,0-.1,1.7,3.8,3.8,0,0,0,2.4,3.9c2.3,1.7,6.1,2.9,10.5,2.9s8.2-1.2,10.5-2.9A3.9,3.9,0,0,0,356.7,25.4Z" fill="#fbfafc"/><path d="M339.7,31.8c1.7,1.6,6.4,1.6,8.2,0-.1-9.7-1.9-17.5-4.1-17.5S339.7,22.1,339.7,31.8Z" fill="#fbfafc"/><path d="M343.8,14.3c-5.7,0-10.4,6.7-10.5,15,0,2.4,4.7,3.4,6.4,2.5C339.7,22.1,341.6,14.3,343.8,14.3Z" fill="url(#linear-gradient-3)"/><path d="M343.8,14.3c2.2,0,4,7.8,4.1,17.5,1.5.9,6.2-.1,6.4-2.5C354.1,21,349.5,14.3,343.8,14.3Z" fill="url(#linear-gradient-4)"/><path d="M333.6,17.2c3.8-4.2,10.2-2.9,10.2-2.9a16,16,0,0,0-2.4-1.9A13.3,13.3,0,0,0,333.6,17.2Z" fill="url(#linear-gradient-5)"/><path d="M353.9,17.2a13,13,0,0,0-7.8-4.8,12.5,12.5,0,0,0-2.3,1.9S350.1,13,353.9,17.2Z" fill="url(#linear-gradient-6)"/><path d="M352.5,18.5c0,3.5-4,6.4-9,6.4s-9-2.9-9-6.4,4.1-6.3,9-6.3S352.5,15,352.5,18.5Z" fill="url(#New_Gradient_Swatch_1)" style="mix-blend-mode:screen"/><path d="M351.8,57.2l-3-.9-2.2-.7a3,3,0,0,0-2.1-.1l-2.6.6a3.7,3.7,0,0,1-4.4-2.8c-.1-.2-.1-.5-.2-.8l-4.5,4.1.4-3.3h-.8a3.5,3.5,0,0,1-3.3-2.6,33.4,33.4,0,0,1-1-4.3,3.6,3.6,0,0,1,2.7-4.1l8-1.8a3.7,3.7,0,0,1,4.3,2.7l.3,1.1c1.2-.3,2.4-.5,3.6-.9a3.7,3.7,0,0,1,4.7,3c.2,1.2.6,2.3.8,3.5a3.6,3.6,0,0,1-2.2,4.2l-.4.2Zm-17.7-3.1.5-.4a20.9,20.9,0,0,1,2.2-2l.8-.5,3.6-.8a2.5,2.5,0,0,0,1.9-2.9l-.9-4.1a2.5,2.5,0,0,0-3.2-1.9l-7.9,1.8a2.4,2.4,0,0,0-2,3.2c.3,1.2.5,2.4.8,3.7a2.5,2.5,0,0,0,3.3,2l1.1-.2Zm4.1-2,.3,1.4a2.5,2.5,0,0,0,2.7,1.7l1.7-.4a6.7,6.7,0,0,1,5.2.2l.9.3h.4l-1.1-1.8,1.3-.3a2.5,2.5,0,0,0,2-3.1l-.9-3.9a2.5,2.5,0,0,0-3.2-2l-3.5.8h-.4a8.5,8.5,0,0,0,.4,1.7,3.8,3.8,0,0,1-2.9,4.6Z" fill="#dab5f7"/><path d="M334.1,54.1l.2-2.1-1.1.2a2.5,2.5,0,0,1-3.3-2c-.3-1.3-.5-2.5-.8-3.7a2.4,2.4,0,0,1,2-3.2l7.9-1.8a2.5,2.5,0,0,1,3.2,1.9l.9,4.1a2.5,2.5,0,0,1-1.9,2.9l-3.6.8-.8.5a20.9,20.9,0,0,0-2.2,2Z" fill="#fff"/><path d="M338.2,52.1l2.9-.6a3.8,3.8,0,0,0,2.9-4.6,8.5,8.5,0,0,1-.4-1.7h.4l3.5-.8a2.5,2.5,0,0,1,3.2,2l.9,3.9a2.5,2.5,0,0,1-2,3.1l-1.3.3,1.1,1.8H349l-.9-.3a6.7,6.7,0,0,0-5.2-.2l-1.7.4a2.5,2.5,0,0,1-2.7-1.7Z" fill="#fff"/><path d="M293.1,38.4a4.8,4.8,0,0,1,3.7-4.7,4.6,4.6,0,0,1,5.1,2.2,4.9,4.9,0,0,1,4.1-.3,5,5,0,0,1,2.7,3l.9-.2a4.7,4.7,0,0,1,4,1.6,4.9,4.9,0,0,1-.8,7.3,4.3,4.3,0,0,1-2.7.8c-5.5,0-11.1.1-16.6,0a4.7,4.7,0,0,1-4.7-4.1,4.8,4.8,0,0,1,3.4-5.4Z" fill="#7a46a9"/><path d="M295.1,38.4a4.8,4.8,0,0,1,3.7-4.7,4.6,4.6,0,0,1,5.1,2.2,4.9,4.9,0,0,1,4.1-.3,5,5,0,0,1,2.7,3l.9-.2a4.7,4.7,0,0,1,4,1.6,4.9,4.9,0,0,1-.8,7.3,4.3,4.3,0,0,1-2.7.8c-5.5,0-11.1.1-16.6,0a4.7,4.7,0,0,1-4.7-4.1,4.8,4.8,0,0,1,3.4-5.4Z" fill="#fff"/><path d="M263.5,13a3.6,3.6,0,0,1,2.8-3.6,3.5,3.5,0,0,1,3.9,1.6,3.4,3.4,0,0,1,3.1-.1,3.8,3.8,0,0,1,2.1,2.2h.7a3.4,3.4,0,0,1,3,1.2,3.8,3.8,0,0,1-.6,5.6,3.9,3.9,0,0,1-2.1.6H263.8a3.6,3.6,0,0,1-3.6-3.2,3.6,3.6,0,0,1,2.6-4.1Z" fill="#7a46a9"/><path d="M265,13.6a3.6,3.6,0,0,1,2.8-3.6,3.5,3.5,0,0,1,3.9,1.7,3.6,3.6,0,0,1,5.2,2.1l.7-.2a3.4,3.4,0,0,1,3,1.2,3.8,3.8,0,0,1-.6,5.6,3.7,3.7,0,0,1-2.1.6H265.3a3.5,3.5,0,0,1-3.6-3.2,3.5,3.5,0,0,1,2.6-4Z" fill="#fff"/><path d="M356.5,113.3a9.5,9.5,0,0,1-8.8,4.4c-9.6-.6-26.6-11-26.6-11a52.3,52.3,0,0,0-2-9.5c-3-11.7-7.3-28.2,4.3-28.6,2.4-6.9,20.1-6.5,21.6,7.4s5.2,21.6,10.7,25.8C359,104.3,359,109.5,356.5,113.3Z" fill="url(#linear-gradient-7)"/><path d="M336.3,96.5s-2.8,4.5-5.5,4.6-3-1.2-3-1.2-.1-.8-.3-1.8-.5-2.7-.8-3.8l8-4.8,1.1-.7a1.9,1.9,0,0,0-.2.7,10.2,10.2,0,0,0-.1,3.9A21.3,21.3,0,0,0,336.3,96.5Z" fill="url(#linear-gradient-8)"/><path d="M335.5,93.4l-2.2,2.2c-2.3,2.6-4.2,3.2-5.8,2.5s-.5-2.7-.8-3.8l8-4.8h.9A10.2,10.2,0,0,0,335.5,93.4Z" opacity="0.15" style="mix-blend-mode:overlay"/><path d="M356.5,113.3a9.5,9.5,0,0,1-8.8,4.4c-9.6-.6-26.6-11-26.6-11a52.3,52.3,0,0,0-2-9.5c1.2-7.2.6-16.8.6-16.8L339.5,84c-.1,0-2.4.1,2.4,6.2S355.5,104.3,356.5,113.3Z" opacity="0.15" style="mix-blend-mode:overlay"/><path d="M306.8,122.4l-1,.2-4.5.6a23.5,23.5,0,0,1-5.1-4.8,6.3,6.3,0,0,1-1.3-3.1c0-2.5,2.6,1.1,4.6,2.2s3.8,1.7,3.3.3-.3-3.3.9-.9S306.8,122.4,306.8,122.4Z" fill="#fcebee"/><path d="M305.8,122.6l-4.5.6a23.5,23.5,0,0,1-5.1-4.8c0-.7.6-.4,2.1,1s5.5-.8,7.2,2.5Z" opacity="0.15" style="mix-blend-mode:overlay"/><path d="M304.6,120.5h-1l-4.4.7a24.5,24.5,0,0,1-5.2-4.9,5.7,5.7,0,0,1-1.2-3.1c-.1-2.5,2.6,1.2,4.5,2.3" fill="#fcebee"/><path d="M303.6,120.6l-4.4.7a24.5,24.5,0,0,1-5.2-4.9c0-.7.6-.4,2.1,1s5.6-.8,7.2,2.5C303.5,120.1,303.5,120.4,303.6,120.6Z" opacity="0.15" style="mix-blend-mode:overlay"/><polygon points="339.5 97.3 339.3 101.5 339 107.8 338.9 110.7 338.9 111.9 338.7 114.3 338.7 115.5 338.6 117.9 338.5 119.1 338.4 121.5 338.3 122.8 338.2 125.1 338.2 126.4 338.1 128.8 338 130 337.9 132.4 337.9 132.8 338 133.6 338.2 136 338.3 137.2 338.6 140.1 318 140.1 318 137.2 318 136 317.9 133.6 317.9 132.4 317.9 130 317.8 128.8 317.8 126.4 317.8 125.1 317.7 122.8 317.7 121.5 317.7 119.1 317.7 118.7 317.9 117.9 318.8 115.5 319.2 114.3 320 111.9 320.4 110.7 321.8 106.6 323.4 104.2 325.9 100.5 337 97.9 339.5 97.3" fill="#fff"/><polygon points="338.3 137.2 318 137.2 318 136 338.2 136 338.3 137.2" opacity="0.25" style="mix-blend-mode:overlay"/><polygon points="338 133.6 317.9 133.6 317.9 132.4 337.9 132.4 337.9 132.8 338 133.6" opacity="0.25" style="mix-blend-mode:overlay"/><polygon points="338.1 128.8 338 130 317.9 130 317.8 128.8 338.1 128.8" opacity="0.25" style="mix-blend-mode:overlay"/><polygon points="338.2 125.1 338.2 126.4 317.8 126.4 317.8 125.1 338.2 125.1" opacity="0.25" style="mix-blend-mode:overlay"/><polygon points="338.4 121.5 338.3 122.8 317.7 122.8 317.7 121.5 338.4 121.5" opacity="0.25" style="mix-blend-mode:overlay"/><polygon points="338.6 117.9 338.5 119.1 317.7 119.1 317.7 118.7 317.9 117.9 338.6 117.9" opacity="0.25" style="mix-blend-mode:overlay"/><polygon points="338.7 114.3 338.7 115.5 318.8 115.5 319.2 114.3 338.7 114.3" opacity="0.25" style="mix-blend-mode:overlay"/><polygon points="338.9 110.7 338.9 111.9 320 111.9 320.4 110.7 338.9 110.7" opacity="0.25" style="mix-blend-mode:overlay"/><path d="M337.9,132.8l.7,7.3h-8.9c3.3-4.5,4.3-10.1,2.7-11.8s-6.4-1.3-6.9-2.8,5.7-.6,7.5-4.4,2-10.9,4.2-15.2l1.8,1.9Z" opacity="0.25" style="mix-blend-mode:overlay"/><path d="M339.5,97.3l-.2,4.2c-3.1.5-4.2,6.1-9.3,5.8s-5.3-2.2-6.6-3.1l2.5-3.7L337,97.9Z" opacity="0.25" style="mix-blend-mode:overlay"/><path d="M321.6,116c-2.2,3.4-.1,5.4.5,8.4s-.3,15.7-.3,15.7H309.5s-9.4-15.6-9.4-16.7,5.5-1.4,6.5-2.8c.4.4,5.9,8.1,5.9,8.1s1.7-14.6,2.9-19.1a8.6,8.6,0,0,1,2.6-3.8,37.8,37.8,0,0,1,7.9-5.3,12.6,12.6,0,0,0-1.6,3.3C322.9,108.2,323.3,113.4,321.6,116Z" fill="#0ec416"/><path d="M336.5,87.6a3.1,3.1,0,0,1-.2.8c-.9,2.4-3.5,4.9-5.9,6.4a5.6,5.6,0,0,1-3.2,1.2c-2.4-.2-6.2-2.9-7.1-10.9-.2-2.2-.4-3.5-.4-4.3a6,6,0,0,1-.1-.8l1.2-3.8a24.6,24.6,0,0,0,8.2,5c4.6,1.5,5.5,1,5.5,1a13.8,13.8,0,0,0,1.4,2.5h.2c.5.2,0-2.1,0-2.1a1.7,1.7,0,0,1,2.5-.7C340.3,83.2,339.8,87.7,336.5,87.6Z" fill="#fcdbe2"/><path d="M337.9,100.2c-1.2,2.2-3.5,4.7-6.8,5.1-5.2.7-5.3-3-5.3-4.2v-.2c-.1-.9,2.2-2.8,2.2-2.8l7.4-2.6s3.2.6,3.6,1.4S338.9,98.6,337.9,100.2Z" fill="#e5ffd7"/><path d="M337.9,100.2c-.4-.7-1-1.4-1.6-1.5s-2.7,2.4-5.2,2.7-3.3-.6-3.3-.6a8.4,8.4,0,0,0-2,.3v-.2c-.1-.9,2.2-2.8,2.2-2.8l7.4-2.6s3.2.6,3.6,1.4S338.9,98.6,337.9,100.2Z" opacity="0.15" style="mix-blend-mode:overlay"/><path d="M336.3,88.2c-.9,2.5-3.5,5-5.9,6.5a11.8,11.8,0,0,0,4.4-5.9c.5-2.3,0-5.2-1.3-5.5s-6.5-2.1-8.8-3.1-2.9-.4-5,.5a8.1,8.1,0,0,1-.1-.9l1.2-3.8a23,23,0,0,0,8.2,5c4.6,1.6,5.5,1.1,5.5,1.1a13.8,13.8,0,0,0,1.4,2.5A16.5,16.5,0,0,1,336.3,88.2Z" opacity="0.15" style="mix-blend-mode:overlay"/><path d="M337.9,83.5c-.5.1-.8,1.6-.1,1.7" fill="none" stroke="#efb4c1" stroke-miterlimit="10" stroke-width="0.2"/><path d="M354.3,140.1h-19a125.6,125.6,0,0,0-.2-19.6c-.6-5.4,1-12.2,2.4-17.1.9-2.8,1.7-5,2-6.1a45.4,45.4,0,0,1,11.8,6.6C356.3,108,354.3,140.1,354.3,140.1Z" fill="#0ec416"/><path d="M344.9,140.1h-4.3c2.7-3.3,2.6-8.6,2.3-14.6-.4-7.7.2-13.4,1.3-11.9C343.9,118.8,345.3,127,344.9,140.1Z" opacity="0.15" style="mix-blend-mode:overlay"/><path d="M317.7,124.9s.5,8.9-1.3,15.2h-5.3c2-3.2,3.9-9.4,3.9-15.2-.1-8,2-8.7,3.5-11.1a14.7,14.7,0,0,0,1.9-4.8,18.2,18.2,0,0,1-2.7,7.9A7.4,7.4,0,0,0,317.7,124.9Z" opacity="0.15" style="mix-blend-mode:overlay"/><path d="M318,105.8a37.8,37.8,0,0,1,7.9-5.3,12.6,12.6,0,0,0-1.6,3.3A33,33,0,0,0,318,105.8Z" opacity="0.15" style="mix-blend-mode:overlay"/><path d="M354.3,140.1h-1.2c1.1-9.9-2-29.7-4.6-32.7s-6-3.6-11-4c.9-2.8,1.7-5,2-6.1a45.4,45.4,0,0,1,11.8,6.6C356.3,108,354.3,140.1,354.3,140.1Z" opacity="0.15" style="mix-blend-mode:overlay"/><path d="M305.4,107.2v10a1.4,1.4,0,0,1-1.4,1.4h-9.3a1.1,1.1,0,0,1-.9-.9.7.7,0,0,1-.1-.5V97.2a1.3,1.3,0,0,1,.5-1.1,1.4,1.4,0,0,1,.9-.3H304a1.4,1.4,0,0,1,1.4,1.4v10Zm-.9-.6V98.7c0-.3-.1-.4-.3-.4h-9.3c-.2,0-.3.1-.3.4v15.8c0,.3.1.4.3.4h9.4c0-.1.1-.1.2-.1v-8.2Zm-6.1,10.2a1.3,1.3,0,0,0,1.1,1.2,1.2,1.2,0,0,0,1.2-1.2,1.2,1.2,0,0,0-1.1-1.2A1.2,1.2,0,0,0,298.4,116.8Zm1.2-19.9h-1.4c-.3,0-.3,0-.3.3s0,.2.2.2h2.8c.3,0,.3,0,.3-.3s0-.2-.2-.2Z" fill="#4f2382"/><path d="M304.5,106.6v8.2c-.1,0-.2,0-.2.1h-9.4c-.2,0-.3-.1-.3-.4V98.7c0-.3.1-.4.3-.4h9.3c.2,0,.3.1.3.4v7.9Z" fill="url(#radial-gradient)"/><path d="M298.4,116.8a1.2,1.2,0,0,1,1.2-1.2,1.2,1.2,0,0,1,1.1,1.2,1.2,1.2,0,0,1-1.2,1.2A1.3,1.3,0,0,1,298.4,116.8Z" fill="#fff"/><path d="M299.6,96.9H301c.2,0,.2,0,.2.2s0,.3-.3.3h-2.8c-.2,0-.2-.1-.2-.2s0-.3.3-.3Z" fill="#fff"/><path d="M304.5,98.7c0-.3-.1-.4-.3-.4h-9.3c-.2,0-.3.1-.3.4v15.8c0,.2,0,.3.1.3l9.8-16.1Z" fill="url(#radial-gradient-2)"/><path d="M249.3,38.5a21.3,21.3,0,0,0-4.2,1,17.1,17.1,0,0,0-3.9,1.7,26.6,26.6,0,0,1,5.1,1.8A26.6,26.6,0,0,1,249.3,38.5Z" fill="#fbfafc"/><path d="M263.7,96.2a2.4,2.4,0,0,1-1.5-.9c-.4-.6-.3-1.1.2-1.2a1.6,1.6,0,0,1,1.5.9C264.3,95.6,264.2,96.1,263.7,96.2Z" fill="#603913"/><path d="M263.4,95.6H263L237.6,75.7l.5-.6L263,94.5l8.8-30.4.8.2-9,31C263.6,95.4,263.5,95.5,263.4,95.6Z" fill="#d7c3ed"/><path d="M263.4,95.6c-.2,0-.4,0-.5-.2L246.3,72.7l.6-.4,16,21.7V67.1h.8l-.2,28.1A.5.5,0,0,1,263.4,95.6Z" fill="#d7c3ed"/><path d="M274.7,55a11.1,11.1,0,0,0-1.2-2.7,21,21,0,0,0-1.5-3,23.8,23.8,0,0,0-6.6-6.8c-8.9-5.2-19.1.5-19.1.5s-11.7,1.4-15.9,10.8a24.9,24.9,0,0,0-1.3,9.4c.1,1.1.3,2.2.5,3.3a10.2,10.2,0,0,0,.7,2.9c.8,2.5,2.2,5,6.3,5.5s12.2,1.4,19.7-1,13.4-6.5,16.5-10.8C275.7,60.7,275.5,57.5,274.7,55Z" fill="#fbfafc"/><path d="M249,75.6c3.9,1.7,12-.8,14.1-4.6-5.5-16.7-13-29.2-16.8-28S243.7,58.8,249,75.6Z" fill="#fbfafc"/><path d="M246.3,43c-9.9,3.2-14.1,17.4-9.7,31.9,1.3,4.1,9.9,3.2,12.4.7C243.7,58.8,242.4,44.3,246.3,43Z" fill="url(#linear-gradient-9)"/><path d="M246.3,43c3.8-1.2,11.3,11.3,16.8,28,3.1.7,10.7-3.6,9.7-7.9C267.8,48.8,256.1,39.8,246.3,43Z" fill="url(#linear-gradient-10)"/><path d="M230.4,53.8c4.2-9.4,15.9-10.8,15.9-10.8a26.6,26.6,0,0,0-5.1-1.8A23,23,0,0,0,230.4,53.8Z" fill="url(#linear-gradient-11)"/><path d="M265.4,42.5a23.3,23.3,0,0,0-16.1-4,26.6,26.6,0,0,0-3,4.5S256.5,37.3,265.4,42.5Z" fill="url(#linear-gradient-12)"/><path d="M264.3,45.4c2,6.1-3.4,13.3-11.9,16.1s-17.2.1-19.1-6,3.4-13.2,11.9-16S262.3,39.4,264.3,45.4Z" fill="url(#New_Gradient_Swatch_1-2)" style="mix-blend-mode:screen"/><path d="M285.3,111.2h-5.7a28.4,28.4,0,0,1-4.1.1,5.9,5.9,0,0,0-3.7,1c-1.3.9-2.7,1.6-4,2.4a6.7,6.7,0,0,1-9.3-2.2,11.5,11.5,0,0,0-.8-1.4l-5.5,9.8-1.1-6.1-1.4.5a6.6,6.6,0,0,1-7.2-2.6,77.6,77.6,0,0,1-4-6.9,6.3,6.3,0,0,1,2.4-8.5c4.2-2.6,8.5-5.1,12.8-7.6a6.6,6.6,0,0,1,8.9,2.2l1,1.7c2-1.2,4-2.2,5.8-3.5a6.8,6.8,0,0,1,9.8,2.5l3.3,5.6a6.5,6.5,0,0,1-1.5,8.5l-.5.5Zm-32.2,4.6.6-1c.9-1.5,1.7-3.1,2.7-4.7a2.9,2.9,0,0,1,1.1-1.1l5.8-3.5a4.3,4.3,0,0,0,1.6-6c-1.2-2.3-2.5-4.5-3.9-6.7a4.5,4.5,0,0,0-6.4-1.5l-12.7,7.6c-2.6,1.5-3.2,4-1.7,6.6s2.4,3.9,3.5,5.9,4.1,3.3,6.8,1.7l1.9-1.1Zm6-5.7,1.3,2.2a4.5,4.5,0,0,0,5.6,1.5l2.8-1.6a12,12,0,0,1,9-2.6,9.6,9.6,0,0,0,1.7,0h.8l-2.9-2.4,2.1-1.3a4.5,4.5,0,0,0,1.6-6.5l-3.7-6.2c-1.5-2.5-4.1-3.1-6.7-1.6l-5.5,3.3-.7.5,1.6,2.6a6.6,6.6,0,0,1-2.4,9.5Z" fill="#bfa2ed"/><path d="M253.1,115.8l-.7-3.8-1.9,1.1c-2.7,1.6-5.2.9-6.8-1.7s-2.3-3.9-3.5-5.9-.9-5.1,1.7-6.6l12.7-7.6a4.5,4.5,0,0,1,6.4,1.5c1.4,2.2,2.7,4.4,3.9,6.7a4.3,4.3,0,0,1-1.6,6l-5.8,3.5a2.9,2.9,0,0,0-1.1,1.1c-1,1.6-1.8,3.2-2.7,4.7Z" fill="#fff"/><path d="M259.1,110.1l4.6-2.7a6.6,6.6,0,0,0,2.4-9.5l-1.6-2.6.7-.5,5.5-3.3c2.6-1.5,5.2-.9,6.7,1.6l3.7,6.2a4.5,4.5,0,0,1-1.6,6.5l-2.1,1.3,2.9,2.4h-.8a9.6,9.6,0,0,1-1.7,0,12,12,0,0,0-9,2.6l-2.8,1.6a4.5,4.5,0,0,1-5.6-1.5Z" fill="#fff"/><path d="M339,82.3c.5,1.8-.3,4.6-2.9,4.5a2.4,2.4,0,0,1-.2.8A15.1,15.1,0,0,1,330,94a5.6,5.6,0,0,1-3.2,1.2c-1.5-.1-3.5-1.1-5-3.7,1.6,3.1,3.8,4.4,5.4,4.5a5.6,5.6,0,0,0,3.2-1.2c2.4-1.5,5-4,5.9-6.4a3.1,3.1,0,0,0,.2-.8C339.5,87.7,340.2,83.8,339,82.3Z" opacity="0.2" style="mix-blend-mode:overlay"/><path d="M329.1,84.9c0,.6-.3,1.1-.7,1.1s-.7-.5-.7-1.1.3-1.2.7-1.2S329.1,84.3,329.1,84.9Z" fill="#4b2f56"/><path d="M323.2,84.9c0,.6-.3,1.1-.7,1.1s-.7-.5-.7-1.1.3-1.2.7-1.2S323.2,84.3,323.2,84.9Z" fill="#4b2f56"/><path d="M324.9,84.4a6.5,6.5,0,0,1-.6,3c-.3.9.5,1.2,1.8.9" fill="none" stroke="#efb4c1" stroke-miterlimit="10" stroke-width="0.2"/><path d="M326.5,91.5a2.8,2.8,0,0,0,3.5-1.6" fill="none" stroke="#efb4c1" stroke-miterlimit="10" stroke-width="0.2"/></g></g></g></svg>