<svg xmlns="http://www.w3.org/2000/svg" xmlns:xlink="http://www.w3.org/1999/xlink" viewBox="0 0 369 140"><defs><radialGradient id="radial-gradient" cx="-45.07" cy="146.82" r="250.54" gradientTransform="translate(105.6 -79.6) scale(0.87 0.81)" gradientUnits="userSpaceOnUse"><stop offset="0" stop-color="#0589db"/><stop offset="1" stop-color="#052fdb"/></radialGradient><radialGradient id="radial-gradient-2" cx="317.15" cy="76.97" r="57.36" gradientTransform="translate(-327.5 -12.2) scale(1.89 1.09)" xlink:href="#radial-gradient"/></defs><title>BANNERS</title><g style="isolation:isolate"><g id="Layer_1" data-name="Layer 1"><text transform="translate(15.5 48.1)" font-size="16" fill="#eff9f4" font-family="Heebo-Bold, Heebo" font-weight="700"><tspan letter-spacing="-0.06em">T</tspan><tspan x="9" y="0">oday</tspan><tspan x="43.8" y="0" letter-spacing="-0.02em"> </tspan><tspan x="47.5" y="0" letter-spacing="-0.06em">T</tspan><tspan x="56.5" y="0">ask</tspan></text><rect width="369" height="140" fill="url(#radial-gradient)"/><path d="M369,140s-101.3,0-112.2-7.5,11.6-16.6-22-21-55-9.1-46.7-19.1,36.6-11.6,30.7-19.5-51.7-11.5-44.9-19.7,90.3-7.1,83.8-16.2-6.9-8.9,1.9-13.5,59.7-4.1,63.9-7.9S339.1,4.3,369,3.7Z" opacity="0.2" fill="url(#radial-gradient-2)" style="mix-blend-mode:multiply"/><rect x="229" y="17.9" width="70.1" height="92.76" fill="#fff" stroke="#0033d7" stroke-width="1.66"/><rect x="237.2" y="55.3" width="15.8" height="14.74" fill="#005fd7" stroke="#212b84" stroke-width="1.66"/><rect x="237.2" y="30.3" width="15.8" height="14.74" fill="#005fd7" stroke="#212b84" stroke-width="1.66"/><rect x="237.2" y="83.2" width="15.8" height="14.74" fill="#005fd7" stroke="#212b84" stroke-width="1.66"/><rect x="244.2" y="23.8" width="70.1" height="92.76" fill="#0033d7" opacity="0.2"/><rect x="256.4" y="30.3" width="70.1" height="92.76" fill="#fff" stroke="#0033d7" stroke-width="1.66"/><rect x="264.7" y="64.4" width="15.8" height="14.74" fill="#005fd7" stroke="#212b84" stroke-width="1.66"/><rect x="264.7" y="39.3" width="15.8" height="14.74" fill="#005fd7" stroke="#212b84" stroke-width="1.66"/><rect x="264.7" y="92.2" width="15.8" height="14.74" fill="#005fd7" stroke="#212b84" stroke-width="1.66"/><rect x="283.9" y="42.7" width="35.6" height="2.17" fill="#0033d7"/><rect x="283.9" y="48.5" width="19.1" height="2.17" fill="#0033d7"/><rect x="283.9" y="67.7" width="35.6" height="2.17" fill="#0033d7"/><rect x="283.9" y="73.6" width="19.1" height="2.17" fill="#0033d7"/><rect x="283.9" y="95.6" width="35.6" height="2.17" fill="#0033d7"/><rect x="283.9" y="101.4" width="19.1" height="2.17" fill="#0033d7"/></g></g></svg>