<svg id="Layer_1" data-name="Layer 1" xmlns="http://www.w3.org/2000/svg" viewBox="0 0 48 48"><title>messages</title><path d="M48,33.1c-.9,2.4-2.7,3.2-5.3,2.9v4.7a11.2,11.2,0,0,1-.5,1.3l-1.1-.6c-1.6-1.6-3.1-3.2-4.7-4.7a2.5,2.5,0,0,0-1.7-.6H20.9c-3,0-4.3-1.4-4.4-4.3V30H12.6c-.3,0-.7.4-.9.6s-3.2,3.3-4.9,4.8c-.2.3-.7.4-1.1.5a3.6,3.6,0,0,1-.4-1.1V30H3.7A3.7,3.7,0,0,1,0,26.4V9.7A3.7,3.7,0,0,1,3.7,6.1h24a3.5,3.5,0,0,1,3.7,3.7,17.6,17.6,0,0,1,0,2.3h1.3c3.4,0,6.9.1,10.3-.1s4.1.7,5,3ZM6.8,33h.3c1.3-1.2,2.5-2.6,3.8-3.8a3.1,3.1,0,0,1,1.8-.7H27c2.2,0,3-.7,3-3V10.6c0-2.3-.8-3-3-3H4.4c-2.1,0-2.9.8-2.9,2.8,0,4.7.1,9.4,0,14.1s.8,4.2,4,4c1,0,1.3.4,1.3,1.4ZM31.4,13.5V25.7c0,2.9-1.3,4.3-4.2,4.3H17.9v1.6c0,2.2.9,3,3,3,4.4,0,8.9.1,13.3,0a3.9,3.9,0,0,1,3.6,1.5c1,1.2,2.2,2.2,3.5,3.5v-4c0-.7.3-1,1-1h1.8c1.5-.1,2.4-.9,2.4-2.3V15.8a2.2,2.2,0,0,0-2.2-2.3Z" fill="#007b6b"/><path d="M6.8,33V29.9c0-1-.3-1.4-1.3-1.4-3.2.2-4.1-.5-4-4s0-9.4,0-14.1c0-2,.8-2.8,2.9-2.8H27c2.2,0,3,.7,3,3V25.5c0,2.3-.8,3-3,3H12.7a3.1,3.1,0,0,0-1.8.7c-1.3,1.2-2.5,2.6-3.8,3.8ZM23.2,21a3,3,0,0,0,3.1-3,3.1,3.1,0,0,0-6.1,0A2.9,2.9,0,0,0,23.2,21Zm-7.5,0a3,3,0,0,0,3.1-3,3.1,3.1,0,0,0-6.1,0A2.9,2.9,0,0,0,15.7,21ZM8.3,21a3,3,0,0,0,3-3,3.1,3.1,0,0,0-3-3,3,3,0,0,0-3.1,3A2.9,2.9,0,0,0,8.3,21Z" fill="#00a89a"/><path d="M31.4,13.5H44.3a2.2,2.2,0,0,1,2.2,2.3V32.3c0,1.4-.9,2.2-2.4,2.3H42.3c-.7,0-1,.3-1,1v4c-1.3-1.3-2.5-2.3-3.5-3.5a3.9,3.9,0,0,0-3.6-1.5c-4.4.1-8.9,0-13.3,0-2.1,0-3-.8-3-3V30h9.3c2.9,0,4.2-1.4,4.2-4.3V13.5Z" fill="#defcf8"/><path d="M23.2,21a2.9,2.9,0,0,1-3-3,3.1,3.1,0,0,1,6.1,0A3,3,0,0,1,23.2,21Zm.1-4.5A1.7,1.7,0,0,0,21.7,18a1.6,1.6,0,0,0,1.5,1.6,1.5,1.5,0,0,0,1.5-1.5A1.4,1.4,0,0,0,23.3,16.5Z" fill="#007b6b"/><path d="M15.7,21a2.9,2.9,0,0,1-3-3,3.1,3.1,0,0,1,6.1,0A3,3,0,0,1,15.7,21Zm1.6-3a1.6,1.6,0,0,0-1.6-1.5A1.5,1.5,0,0,0,14.2,18a1.6,1.6,0,0,0,1.6,1.6A1.6,1.6,0,0,0,17.3,18Z" fill="#007b6b"/><path d="M8.3,21a2.9,2.9,0,0,1-3.1-3,3,3,0,0,1,3.1-3,3.1,3.1,0,0,1,3,3A3,3,0,0,1,8.3,21Zm1.5-2.9a1.6,1.6,0,0,0-1.5-1.6,1.7,1.7,0,0,0-1.6,1.4,1.6,1.6,0,0,0,1.5,1.7A1.6,1.6,0,0,0,9.8,18.1Z" fill="#007b6b"/><path d="M23.3,16.5a1.4,1.4,0,0,1,1.4,1.6,1.5,1.5,0,0,1-1.5,1.5A1.6,1.6,0,0,1,21.7,18,1.7,1.7,0,0,1,23.3,16.5Z" fill="#defcf8"/><path d="M17.3,18a1.6,1.6,0,0,1-1.5,1.6A1.6,1.6,0,0,1,14.2,18a1.5,1.5,0,0,1,1.5-1.5A1.6,1.6,0,0,1,17.3,18Z" fill="#defcf8"/><path d="M9.8,18.1a1.6,1.6,0,0,1-1.6,1.5,1.6,1.6,0,0,1-1.5-1.7,1.7,1.7,0,0,1,1.6-1.4A1.6,1.6,0,0,1,9.8,18.1Z" fill="#defcf8"/></svg>