<svg xmlns="http://www.w3.org/2000/svg" viewBox="0 0 64 64"><title>Asset 4ldpi</title><g id="Layer_2" data-name="Layer 2"><g id="Layer_1-2" data-name="Layer 1"><path d="M30.9,19l-1.4-7A11.1,11.1,0,0,0,16.6,3.5a10.8,10.8,0,0,0-8.4,8.4L6.6,19A4.4,4.4,0,0,0,10,24.2H26.5a4.4,4.4,0,0,0,4.4-4.4A2.6,2.6,0,0,0,30.9,19Z" fill="#00a89a"/><path d="M35.3,16.6,38,13.9a2.2,2.2,0,0,0,.6-1.5V2.2A2.2,2.2,0,0,1,40.8,0h21A2.2,2.2,0,0,1,64,2.2V15.4a2.2,2.2,0,0,1-2.2,2.3H35.3Z" fill="#defcf8"/><path d="M12.1,9.9v7.5c0,2,.4,2.7,1,3.1l1.4.9a2.2,2.2,0,0,1,.9,1.9v5.4h6.7V23.3a2.1,2.1,0,0,1,1-1.9l1.3-.9a2.3,2.3,0,0,0,1-1.9V9.9Z" fill="#defcf8"/><path d="M30.8,31.6l-8.7-2.9H15.4L6.7,31.6a6.6,6.6,0,0,0-4.5,6.2V53H35.3V37.8A6.6,6.6,0,0,0,30.8,31.6Z" fill="#00a89a"/><path d="M8.8,38.6H11V53H8.8Z" fill="#007b6b"/><path d="M26.5,43h2.2V53H26.5Z" fill="#007b6b"/><path d="M0,53H37.5V64H0Z" fill="#defcf8"/><path d="M13.2,57.4H24.3v2.2H13.2Z" fill="#007b6b"/><path d="M41.9,3.3H60.7V5.5H41.9Z" fill="#007b6b"/><path d="M41.9,7.7H60.7V9.9H41.9Z" fill="#007b6b"/><path d="M41.9,12.1H56.3v2.2H41.9Z" fill="#007b6b"/><path d="M22.1,38.6h6.6v2.2H22.1Z" fill="#defcf8"/><path d="M18.8,3.3A10.8,10.8,0,0,0,8.2,11.9l-.6,2.4,4.9-2.6a5.7,5.7,0,0,1,5.9.1,5.6,5.6,0,0,0,5.3.3l5-2.2A10.7,10.7,0,0,0,18.8,3.3Z" fill="#00a89a"/><path d="M9.7,30.7l4.6,4.6L18.8,32V28.7H15.4Z" fill="#defcf8"/><path d="M23.2,35.3l4.6-4.6-5.7-2H18.8V32Z" fill="#defcf8"/><path d="M17.7,28.7h2.2V53H17.7Z" fill="#007b6b"/><path d="M43.8,41.7a8.3,8.3,0,0,1-4.1-7.2v-8a4.4,4.4,0,0,1,4.4-4.4H56.3V34.5a8.4,8.4,0,0,1-4.1,7.2A8.9,8.9,0,0,1,43.8,41.7Z" fill="#defcf8"/><path d="M60.1,45.7l-8.2-3.8H44.1l-8.2,3.8A6.6,6.6,0,0,0,32,51.8V64H64V51.8A6.6,6.6,0,0,0,60.1,45.7Z" fill="#007b6b"/></g></g></svg>