<svg id="Layer_1" data-name="Layer 1" xmlns="http://www.w3.org/2000/svg" viewBox="0 0 48 48"><title>new-enquiry</title><path d="M23.2,14.2,22.1,9a8.3,8.3,0,0,0-9.7-6.4A8.4,8.4,0,0,0,6.1,8.9L5,14.2a3.1,3.1,0,0,0,2.5,3.9H19.9a3.3,3.3,0,0,0,3.3-3.3A1.6,1.6,0,0,0,23.2,14.2Z" fill="#00a89a"/><path d="M26.5,12.4l2-2A1.6,1.6,0,0,0,29,9.3V1.7A1.6,1.6,0,0,1,30.6,0H46.3A1.6,1.6,0,0,1,48,1.7v9.9a1.6,1.6,0,0,1-1.7,1.6H26.5Z" fill="#defcf8"/><path d="M9.1,7.4v5.7c0,1.5.3,2,.7,2.3l1,.7a1.6,1.6,0,0,1,.8,1.4v4h5v-4a1.5,1.5,0,0,1,.7-1.4l1-.7A1.5,1.5,0,0,0,19,14V7.4Z" fill="#defcf8"/><path d="M23.1,23.7l-6.5-2.2h-5L5,23.7a4.9,4.9,0,0,0-3.3,4.7V39.7H26.5V28.4A4.9,4.9,0,0,0,23.1,23.7Z" fill="#00a89a"/><path d="M6.6,29H8.3V39.7H6.6Z" fill="#007b6b"/><path d="M19.9,32.3h1.6v7.4H19.9Z" fill="#007b6b"/><path d="M0,39.7H28.1V48H0Z" fill="#defcf8"/><path d="M9.9,43h8.3v1.7H9.9Z" fill="#007b6b"/><path d="M31.4,2.5H45.5V4.1H31.4Z" fill="#007b6b"/><path d="M31.4,5.8H45.5V7.4H31.4Z" fill="#007b6b"/><path d="M31.4,9.1H42.2v1.7H31.4Z" fill="#007b6b"/><path d="M16.6,29h4.9v1.6H16.6Z" fill="#defcf8"/><path d="M14.1,2.5a8.2,8.2,0,0,0-8,6.4l-.4,1.9,3.7-2a3.9,3.9,0,0,1,4.4.1,4.4,4.4,0,0,0,4,.2l3.7-1.7A8.1,8.1,0,0,0,14.1,2.5Z" fill="#00a89a"/><path d="M7.3,23l3.5,3.5L14.1,24V21.5H11.6Z" fill="#defcf8"/><path d="M17.4,26.5,20.9,23l-4.3-1.5H14.1V24Z" fill="#defcf8"/><path d="M13.2,21.5h1.7V39.7H13.2Z" fill="#007b6b"/><path d="M32.9,31.3a6.3,6.3,0,0,1-3.1-5.4v-6a3.3,3.3,0,0,1,3.3-3.3h9.1v9.3a6.4,6.4,0,0,1-3.1,5.4A6.2,6.2,0,0,1,32.9,31.3Z" fill="#defcf8"/><path d="M45.1,34.3l-6.2-2.9H33.1l-6.2,2.9A5,5,0,0,0,24,38.8V48H48V38.8A5,5,0,0,0,45.1,34.3Z" fill="#007b6b"/></svg>