<svg xmlns="http://www.w3.org/2000/svg" xmlns:xlink="http://www.w3.org/1999/xlink" viewBox="0 0 369 150.9"><defs><linearGradient id="linear-gradient" x1="-121.11" y1="142.41" x2="301.89" y2="142.41" gradientTransform="translate(105.6 -45.9) scale(0.87 0.81)" gradientUnits="userSpaceOnUse"><stop offset="0" stop-color="#00a81c"/><stop offset="1" stop-color="#037600"/></linearGradient><linearGradient id="linear-gradient-2" x1="234.18" y1="-3.46" x2="231.16" y2="104.87" gradientUnits="userSpaceOnUse"><stop offset="0" stop-color="#007721"/><stop offset="1" stop-color="#fff"/></linearGradient><linearGradient id="linear-gradient-3" x1="259.7" y1="-2.47" x2="256.69" y2="105.86" xlink:href="#linear-gradient-2"/><linearGradient id="linear-gradient-4" x1="285.23" y1="-1.47" x2="282.21" y2="106.86" xlink:href="#linear-gradient-2"/><linearGradient id="linear-gradient-5" x1="310.75" y1="-0.48" x2="307.73" y2="107.85" xlink:href="#linear-gradient-2"/><linearGradient id="linear-gradient-6" x1="336.27" y1="0.51" x2="333.26" y2="108.84" xlink:href="#linear-gradient-2"/><linearGradient id="linear-gradient-7" x1="133.02" y1="149.97" x2="133.41" y2="163.15" xlink:href="#linear-gradient-2"/><linearGradient id="linear-gradient-8" x1="128.26" y1="150.1" x2="128.65" y2="163.29" xlink:href="#linear-gradient-2"/><radialGradient id="radial-gradient" cx="283.34" cy="132.32" r="45.45" gradientUnits="userSpaceOnUse"><stop offset="0" stop-color="#fff"/><stop offset="1" stop-color="#ccc"/></radialGradient><radialGradient id="radial-gradient-2" cx="283.42" cy="132.41" r="45.45" xlink:href="#radial-gradient"/><radialGradient id="radial-gradient-3" cx="283.44" cy="124.47" r="45.16" xlink:href="#radial-gradient"/><radialGradient id="radial-gradient-4" cx="283.53" cy="124.55" r="45.16" xlink:href="#radial-gradient"/><radialGradient id="radial-gradient-5" cx="284.04" cy="113.69" r="36.49" xlink:href="#radial-gradient"/><radialGradient id="radial-gradient-6" cx="284.04" cy="105.88" r="36.04" xlink:href="#radial-gradient"/><radialGradient id="radial-gradient-8" cx="284" cy="100.52" r="26.05" xlink:href="#radial-gradient"/><linearGradient id="linear-gradient-9" x1="301.97" y1="88.8" x2="302.5" y2="106.82" xlink:href="#linear-gradient-2"/><radialGradient id="radial-gradient-10" cx="265.77" cy="95.23" r="13.29" xlink:href="#radial-gradient"/><radialGradient id="radial-gradient-12" cx="284" cy="95.4" r="25.93" xlink:href="#radial-gradient"/><radialGradient id="radial-gradient-14" cx="277.47" cy="90.89" r="11.96" xlink:href="#radial-gradient"/><radialGradient id="radial-gradient-16" cx="277.38" cy="87.35" r="11.75" xlink:href="#radial-gradient"/><radialGradient id="radial-gradient-17" cx="277.47" cy="87.37" r="11.75" xlink:href="#radial-gradient"/><linearGradient id="linear-gradient-10" x1="236.53" y1="58.72" x2="351.89" y2="58.72" gradientUnits="userSpaceOnUse"><stop offset="0" stop-color="#00a81c"/><stop offset="1" stop-color="#e3e815"/></linearGradient><linearGradient id="linear-gradient-11" x1="361.76" y1="98.74" x2="257.61" y2="-5.68" gradientTransform="translate(-0.2 -2.8) rotate(0.5)" xlink:href="#linear-gradient"/><linearGradient id="linear-gradient-12" x1="346.23" y1="114.23" x2="242.08" y2="9.81" gradientTransform="translate(-0.2 -2.8) rotate(0.5)" xlink:href="#linear-gradient"/><linearGradient id="linear-gradient-13" x1="332.98" y1="127.45" x2="228.83" y2="23.02" gradientTransform="translate(-0.2 -2.8) rotate(0.5)" xlink:href="#linear-gradient"/><linearGradient id="linear-gradient-14" x1="347.65" y1="112.82" x2="243.49" y2="8.39" gradientTransform="translate(-0.2 -2.8) rotate(0.5)" xlink:href="#linear-gradient"/></defs><title>banner-4ldpi</title><g id="Layer_2" data-name="Layer 2"><g id="Layer_1-2" data-name="Layer 1"><rect width="369" height="140" rx="9.6" fill="url(#linear-gradient)"/><rect x="219.4" y="0.1" width="25.6" height="139.87" stroke="#fff" stroke-miterlimit="10" stroke-width="0.17" opacity="0.2" fill="url(#linear-gradient-2)"/><rect x="244.9" y="0.1" width="25.6" height="139.87" stroke="#fff" stroke-miterlimit="10" stroke-width="0.17" opacity="0.2" fill="url(#linear-gradient-3)"/><rect x="270.5" y="0.1" width="25.6" height="139.87" stroke="#fff" stroke-miterlimit="10" stroke-width="0.17" opacity="0.2" fill="url(#linear-gradient-4)"/><rect x="296" y="0.1" width="25.6" height="139.87" stroke="#fff" stroke-miterlimit="10" stroke-width="0.17" opacity="0.2" fill="url(#linear-gradient-5)"/><rect x="321.6" y="0.1" width="25.6" height="139.87" stroke="#fff" stroke-miterlimit="10" stroke-width="0.17" opacity="0.2" fill="url(#linear-gradient-6)"/><path d="M142.3,150.9l-9.3-.2-9.2.2h18.5Z" fill="url(#linear-gradient-7)"/><path d="M132.9,150.8Z" fill="url(#linear-gradient-8)"/><rect x="219.5" y="124.4" width="127.6" height="15.83" fill="url(#radial-gradient)"/><rect x="219.6" y="124.5" width="127.6" height="15.83" stroke="#fff" stroke-miterlimit="10" stroke-width="0.17" opacity="0.2" fill="url(#radial-gradient-2)"/><ellipse cx="283.4" cy="124.5" rx="63.7" ry="4.6" fill="url(#radial-gradient-3)"/><ellipse cx="283.5" cy="124.6" rx="63.7" ry="4.6" fill="url(#radial-gradient-4)"/><rect x="233" y="105.8" width="102" height="15.83" fill="url(#radial-gradient-5)"/><ellipse cx="284" cy="105.9" rx="50.8" ry="4.6" fill="url(#radial-gradient-6)"/><ellipse cx="284" cy="105.9" rx="50.8" ry="4.6" fill="url(#radial-gradient-6)"/><path d="M320.5,95.2c0,2.5-16.4,4.6-36.5,4.6h0c-20.1,0-36.5-2.1-36.5-4.6v9.3h.3c-.2.1-.3.1-.3.2s16.4,1.1,36.5,1.1,36.5-.5,36.5-1.1-.1-.1-.3-.2h.3Z" fill="url(#radial-gradient-8)"/><path d="M320.5,95.2c0,2.5-16.4,4.6-36.5,4.6h0c-20.1,0-36.5-2.1-36.5-4.6v9.3h.3c-.2.1-.3.1-.3.2s16.4,1.1,36.5,1.1,36.5-.5,36.5-1.1-.1-.1-.3-.2h.3Z" fill="url(#radial-gradient-8)"/><path d="M320.4,95.2c0,2.5-16.3,4.6-36.4,4.6h0c20.1,0,36.5-2.1,36.5-4.6s-12.4-4.1-28.9-4.6h-.1C308,91.1,320.4,92.9,320.4,95.2Z" fill="url(#linear-gradient-9)"/><path d="M284,99.8h0c-20.1,0-36.4-2.1-36.4-4.6s12.4-4.1,28.9-4.6h-.1c-16.5.5-28.9,2.3-28.9,4.6S263.9,99.8,284,99.8Z" fill="url(#radial-gradient-10)"/><path d="M284,99.8h0c-20.1,0-36.4-2.1-36.4-4.6s12.4-4.1,28.9-4.6h-.1c-16.5.5-28.9,2.3-28.9,4.6S263.9,99.8,284,99.8Z" fill="url(#radial-gradient-10)"/><path d="M247.6,95.4c0,2.5,16.3,4.6,36.4,4.6s36.4-2.1,36.4-4.6-12.4-4.1-28.9-4.6h-15C260,91.3,247.6,93.1,247.6,95.4Z" fill="url(#radial-gradient-12)"/><path d="M247.6,95.4c0,2.5,16.3,4.6,36.4,4.6s36.4-2.1,36.4-4.6-12.4-4.1-28.9-4.6h-15C260,91.3,247.6,93.1,247.6,95.4Z" fill="url(#radial-gradient-12)"/><rect x="261" y="87.3" width="33" height="7.28" fill="url(#radial-gradient-14)"/><rect x="261" y="87.3" width="33" height="7.28" fill="url(#radial-gradient-14)"/><path d="M260.9,87.3c0,1.2,7.4,2.1,16.5,2.1s16.5-.9,16.5-2.1-5.6-1.8-13.1-2H274C266.5,85.5,260.9,86.3,260.9,87.3Z" fill="url(#radial-gradient-16)"/><path d="M261,87.4c0,1.1,7.4,2.1,16.5,2.1s16.5-1,16.5-2.1-5.6-1.9-13.1-2.1h-6.8C266.6,85.5,261,86.3,261,87.4Z" fill="url(#radial-gradient-17)"/><path d="M341.1,24.5a3.1,3.1,0,0,1,2.4-3.1,3.1,3.1,0,0,1,3.5,1.4,3.2,3.2,0,0,1,2.7-.2,3.2,3.2,0,0,1,1.8,2h.6a3.2,3.2,0,0,1,2.6,1,3.3,3.3,0,0,1-.5,4.9,3.2,3.2,0,0,1-1.8.6h-11a3.2,3.2,0,0,1-3.2-2.8,3.4,3.4,0,0,1,2.3-3.6Z" fill="#d9e62b"/><path d="M307.6,14.4a1.5,1.5,0,0,1,1.2-1.4,1.3,1.3,0,0,1,1.6.6,1.5,1.5,0,0,1,1.3,0,1.6,1.6,0,0,1,.9.9h.3a1.3,1.3,0,0,1,1.2.4,1.7,1.7,0,0,1-.2,2.4l-.9.2h-5.2a1.4,1.4,0,0,1-1.5-1.3,1.5,1.5,0,0,1,1-1.7Z" fill="#d9e62b"/><path d="M296,47.3l-14.1,10-26.6-27L264,23l-27.5-7.2c.7,9.6,1.4,18.9,2,28.3l1.1-.8c2-1.6,3.9-3.1,5.8-4.8s1.2-.5,1.8.2c9.6,9.8,19.3,19.6,28.9,29.5l4.1,4.3,14.5-10.2,48.9,49.3,8.3-8Z" fill="#007821"/><path d="M322.9,66.5,336.3,80l6.7,6.9c.6.5,1,.9,1.4.1L323.5,65.7Z" fill="#007821"/><path d="M333.8,108.6,298.6,72.7l.3-.3c11.7,11.9,23.5,23.8,35.2,35.8Z" fill="#007821"/><path d="M274.1,73.9c-4.5-4.7-9.1-9.3-13.5-13.7,0-.1,0,.1.2.3,4.2,4.4,8.5,8.8,12.8,13.1Z" fill="#007821"/><path d="M281.3,51.9,261.6,32l.3-.3,19.6,20Z" fill="#007821"/><polygon points="264 23.3 264 18 258.6 21.7 264 23.3" fill="#007821"/><polygon points="351.9 98.6 351.9 103.6 348.2 101.4 351.9 98.6" fill="#007821"/><path d="M296,42.3l-14.1,9.9c-8.9-8.9-17.7-17.9-26.6-26.9L264,18l-27.5-7.2c.7,9.6,1.4,18.8,2,28.3l1.1-.8c2-1.6,3.9-3.1,5.8-4.8s1.2-.5,1.8.2c9.6,9.8,19.3,19.6,28.9,29.5l4.1,4.3,14.5-10.2,48.9,49.3,8.3-8Z" fill="url(#linear-gradient-10)"/><path d="M322.9,61.5,336.3,75l6.7,6.9c.6.5,1,.8,1.4.1L323.5,60.7Z" fill="url(#linear-gradient-11)"/><path d="M333.8,103.6,298.6,67.7l.3-.3c11.7,11.9,23.5,23.8,35.2,35.8Z" fill="url(#linear-gradient-12)"/><path d="M274.1,68.9c-4.5-4.7-9.1-9.3-13.5-13.8a.6.6,0,0,0,.2.4c4.2,4.4,8.5,8.7,12.8,13.1Z" fill="url(#linear-gradient-13)"/><path d="M281.3,46.9c-6.5-6.7-13.1-13.3-19.7-19.9l.3-.3c6.6,6.6,13.1,13.3,19.6,19.9Z" fill="url(#linear-gradient-14)"/><path d="M272.7,53l-2.1-.2-.4-.4c-.1-.4.5-.5,1-.5h.9l-1.4-.4-2.1-.4h0l-.6-.4a3.8,3.8,0,0,1,1.6-.3,6.4,6.4,0,0,1,2.8.5h0A2.8,2.8,0,0,1,272.7,53Z" fill="#fbb686"/><path d="M269.1,51.5a4.7,4.7,0,0,1,1.6-.1h0l1.4.4h-.9l-1.4.2Z" fill="#f9a873"/><path d="M271.2,51.9c-.5,0-1.1.1-1,.5l-.4-.3Z" fill="#f89c69"/><path d="M271.6,53.3h-.5l-.5-.5,2.1.2a.8.8,0,0,1-.1.4h-1Z" fill="#f89c69"/><path d="M273.1,53.7h-.7c.1-.1.1-.3.2-.4a.8.8,0,0,0,.1-.4,2.8,2.8,0,0,0-.3-2.2h.4A3.7,3.7,0,0,1,273.1,53.7Z" fill="#cce6f3"/><path d="M283.4,48.1a26.1,26.1,0,0,1-3.7,4.3,17.9,17.9,0,0,1-6.9,1.6l.3-.3a3.7,3.7,0,0,0-.3-2.9l-.2-.3a17.8,17.8,0,0,0,5-1.8,31.9,31.9,0,0,0,3.9-8.1h0a10.4,10.4,0,0,0,1.3,5.3Z" fill="#0a0423"/><path d="M284.5,39.1l-.6.8c.2,0,.7.2.7.4s-.6.4-.8.6-.3,1.6-.2,2.2a14,14,0,0,0,1.8,4.8l-1.9-1a6.1,6.1,0,0,1-.7-1,10.4,10.4,0,0,1-1.3-5.3,15.5,15.5,0,0,1,.3-3.1,8.8,8.8,0,0,0,2.1,1.2Z" fill="#17133a"/><path d="M286.3,37.2c-.4.2-.7.7-1,1l-.8.9-.6-.4a8.8,8.8,0,0,1-2.1-1.2c.1,0,.1,0,.1-.1a3.9,3.9,0,0,1,2.9-1h.1a2.6,2.6,0,0,0,1.2.7Z" fill="#201e48"/><path d="M290.2,36.1c.4-.2.6-1,.8-1.3s-.3-.8-.5-.6l-.5,1.2-.6.2h0a2.3,2.3,0,0,0,.1-1.8,4.5,4.5,0,0,1,.1-1.2h-.5a4.9,4.9,0,0,1-3.1-2.3l-.5,1.3c0,.7-.1.6-.3,1.3h-.1a9.2,9.2,0,0,1,.5-2.6c.6-2.8,5.1-3,6.9-1h0c.9,1,1.4,2.5.8,3.5L291,35.8h0a.6.6,0,0,0-.2.7l-.5.2a1.3,1.3,0,0,1-.1-.6Z" fill="#310a00"/><path d="M285.5,31.4l.5-1.3a4.9,4.9,0,0,0,3.1,2.3l-.4,1c.1.5,0,.5-.2,1s-.1.7-.2,1.1-.2,1-.2,1.5l-1.5.2h-.5a2.6,2.6,0,0,1-1.2-.7.8.8,0,0,1-.2-.4,19.6,19.6,0,0,1,.3-2,4.9,4.9,0,0,1,.1-1.2h.1C285.4,32,285.5,32.1,285.5,31.4Z" fill="#fbb686"/><path d="M286.4,49l.4.7a.4.4,0,0,0,.1.3h0c1,3.7,1.1,7.7,1.4,9.6h0l-2.8-1.6-.9-.5a11.8,11.8,0,0,0,.4-2.8c-.5-2.2-1-4.5-1.6-6.7l-.6-2.2a6.1,6.1,0,0,0,.7,1l1.9,1c.1.1.2.2.2.3A2,2,0,0,0,286.4,49Z" fill="#0e092c"/><path d="M285.5,39.6c0,.1-.1.1-.1.2a2.2,2.2,0,0,0-.3,1,12.8,12.8,0,0,0-.1,3.4v.2a15,15,0,0,0,.6,2.9l.3.8a4.1,4.1,0,0,0,.5.9,2,2,0,0,1-.8-.8c0-.1-.1-.2-.2-.3a14,14,0,0,1-1.8-4.8c-.1-.6-.3-1.8.2-2.2s.8-.3.8-.6-.5-.4-.7-.4l.6-.8.8-.9c.3-.3.6-.8,1-1h.3v1.2A2.2,2.2,0,0,0,285.5,39.6Z" fill="#3b375b"/><path d="M285.7,41.3a10.8,10.8,0,0,0-.7,3.1v-.2a12.8,12.8,0,0,1,.1-3.4,2.2,2.2,0,0,1,.3-1,1.4,1.4,0,0,0,.2.6c0-.1.1-.1.1-.2v1Z" fill="#cce6f3"/><path d="M285.7,41.2v-1l.4-.3a.5.5,0,0,1,.5-.3h0c.1,0,.1,0,0,.1l-.2.4c-.1.4-.3.8-.4,1.2Z" fill="#6c0e26"/><path d="M290.4,38.6c-.6,1.4-3.5,1.5-3.8.8V37.2l1.5-.2,1-.2a2.3,2.3,0,0,0,.7-.8h.4a1.3,1.3,0,0,0,.1.6v.9C290.3,37.9,290.4,38.2,290.4,38.6Z" fill="#f89c69"/><path d="M286.6,39.7h.1a2,2,0,0,1,.4.8.1.1,0,0,1,.1.1,3.8,3.8,0,0,1-.9.9H286c.1-.4.3-.8.4-1.2Z" fill="#8a1c37"/><path d="M289.4,40.6l-.8.4c-.5.1-.9.3-1.2.1a1.4,1.4,0,0,0-.2-.6h-.1a2,2,0,0,0-.4-.8h-.1c.1-.1.1-.1,0-.1h0a.5.5,0,0,0-.5.3l-.4.3c0,.1-.1.1-.1.2a1.4,1.4,0,0,1-.2-.6c0-.1.1-.1.1-.2a2.2,2.2,0,0,1,1.1-1.2v1c.3.7,3.2.6,3.8-.8h.1a1.2,1.2,0,0,1-.1,1.4A3,3,0,0,1,289.4,40.6Z" fill="#e8f6ff"/><path d="M286.3,41.4h0a3.8,3.8,0,0,0,.9-.9,1.4,1.4,0,0,1,.2.6c.3.2.7,0,1.2-.1l.8-.4a3,3,0,0,0,1-.7l-.6,1-.4.4a11.2,11.2,0,0,0-1.7,2,12.5,12.5,0,0,0-1.2,3.4h0c-.1-.8-.3-1.7-.4-2.5A13.7,13.7,0,0,1,286.3,41.4Z" fill="#cce6f3"/><path d="M281.2,67.6l1.4-1.4,2.3-1.9,1.2-1,1.7-1.4a11.9,11.9,0,0,0,1.8-1.5,10.5,10.5,0,0,0,3.8,1.2h.3a8,8,0,0,0,3.1-1.7,6.7,6.7,0,0,1-2.9,5.1c-1.8,1.3-4,2.2-6,3.5l-1,.8-.7.6c.5,4.9,1,5.5.9,10.3,0,1.2-.1,2.7-.2,4.5l-.4.2h-1.4a5.2,5.2,0,0,1-1.9-1.1,4.1,4.1,0,0,0,0-1.1v-.3c-.1-.3-.1-.6-.2-1v-.5c-.2-1.6-.3-3.3-.5-4.9l-.3-1.7.9-4.3-2-1.8A2.2,2.2,0,0,1,281.2,67.6Z" fill="#141134"/><path d="M288.5,34.4c.2-.5.3-.5.2-1l.4-1h.5a4.5,4.5,0,0,0-.1,1.2,2.3,2.3,0,0,1-.1,1.8h0l.6-.2a.8.8,0,0,1-.2.5h0a2.3,2.3,0,0,1-.7.8l-1,.2c0-.5.2-.8.2-1.5S288.3,34.8,288.5,34.4Z" fill="#f9a873"/><path d="M285.9,48.1l-.3-.8a15,15,0,0,1-.6-2.9,10.8,10.8,0,0,1,.7-3.1h.3a10.2,10.2,0,0,0,.2,6.9,3,3,0,0,0,.4,1h0l.2.5-.4-.7A4.1,4.1,0,0,1,285.9,48.1Z" fill="#811932"/><path d="M286.8,48.5c.2-1.4.4-2.5,1.5-3.3l1.9-1.4c.3-.2.3-.2.2-.6s-.3-.5-.2-.8h.6c.4.1.2.2.4-.2v-.2a22.1,22.1,0,0,0,2.7,1.2h0a15.1,15.1,0,0,0-1,3,15,15,0,0,0,.1,4.7Z" fill="#17133a"/><path d="M293.2,51.6c.1,1,.2,2,.2,2.9s.9,5,.3,7.1h-.3a10.5,10.5,0,0,1-3.8-1.2l-.9-.5a.5.5,0,0,1-.4-.2h0c-.3-1.9-.4-5.9-1.4-9.6h0c-.1-.1-.1-.5-.1-.7a2,2,0,0,1-.1-.7.1.1,0,0,1,.1-.1l6.3,2.5C293.1,51.2,293.2,51.4,293.2,51.6Z" fill="#131033"/><path d="M286.8,49.7l-.2-.5h0a3,3,0,0,1-.4-1,10.2,10.2,0,0,1-.2-6.9h.3a13.7,13.7,0,0,0-.2,2.9c.1.8.3,1.7.4,2.5h0a4.2,4.2,0,0,0,.1,1.6c0,.3.1.6.1.9h.1c0,.2,0,.6.1.7A.4.4,0,0,1,286.8,49.7Z" fill="#9f2541"/><path d="M290,35.4l.5-1.2c.2-.2.8.1.5.6s-.4,1.1-.8,1.3h-.4A.8.8,0,0,0,290,35.4Z" fill="#fbb686"/><path d="M280.5,87a28.6,28.6,0,0,0,5.2-1.7l.4-.2h0a.9.9,0,0,1-.1.5v.2l-1.1.5c-.1-.2-.4-.2-.5-.2a.8.8,0,0,0-.5.5l-3,1h0a2.3,2.3,0,0,1-1.4.1V87h.9Z"/><path d="M281.7,83.5l.4-.4h0c0-.1,0-.2.1-.2l.3.3.7.8a5.2,5.2,0,0,0,1.9,1.1h1l-.4.2a28.6,28.6,0,0,1-5.2,1.7h-.9l.3-1.1.2-1.3,1.1-.5Z" fill="#1b181a"/><path d="M283,81.1v.5c.1.4.1.7.2,1v.3a4.1,4.1,0,0,1,0,1.1l-.7-.8-.3-.3a.1.1,0,0,1-.1-.1H282v-.3c-.1-.7-.1-1.4-.2-2l-.3-2.7.4-2.1.3-1.2.3,1.7C282.7,77.8,282.8,79.5,283,81.1Z" fill="#0e092c"/><path d="M291.5,41.1c-.1.3-.1.7-.2,1v.2c-.2.4,0,.3-.4.2h-.6c-.1.3.1.5.2.8s.1.4-.2.6l-1.9,1.4c-1.1.8-1.3,1.9-1.5,3.3a.1.1,0,0,0-.1.1,2,2,0,0,0,.1.7h-.1c0-.3-.1-.6-.1-.9a4.2,4.2,0,0,1-.1-1.6h0a12.5,12.5,0,0,1,1.2-3.4,11.2,11.2,0,0,1,1.7-2l.4-.4.6-1a1.2,1.2,0,0,0,.1-1.4h-.1c0-.4-.1-.7-.1-1V37l1.2,1.3h.2C292,39,291.6,40.5,291.5,41.1Z" fill="#3b375b"/><path d="M288.7,59.9,286,62.1c-.2-1.2-.3-2.5-.5-4l2.8,1.6A.5.5,0,0,0,288.7,59.9Z" fill="#01000f"/><path d="M289.6,60.4a11.9,11.9,0,0,1-1.8,1.5l-1.7,1.4-1.2,1-2.3,1.9-1.4,1.4a2.2,2.2,0,0,0-.1.8l-.7-.6v-.7a39.6,39.6,0,0,0,5.6-5l2.7-2.2Z" fill="#0e092c"/><path d="M296.1,41.7h0c-.7-.2-1.7.8-2.1,1.6a22.1,22.1,0,0,1-2.7-1.2c.1-.3.1-.7.2-1s.5-2.1.2-2.7a50.9,50.9,0,0,1,4.5,3.1h0c.2.1.3.3.5.6a.1.1,0,0,1-.1-.1A1,1,0,0,0,296.1,41.7Z" fill="#201e48"/><path d="M287.8,76.5a56.2,56.2,0,0,1-.9-7.2l1-.8a1.4,1.4,0,0,1,0,1.1,17.9,17.9,0,0,0,.2,2.3,25.7,25.7,0,0,0,.8,4h-.1l5.9,12.3h-.6c-.4-.1-.6-.3-.5-.6L292.3,85h0v-.2C291,82.5,289.5,79.5,287.8,76.5Z" fill="#01000f"/><path d="M294.7,88.2l-5.9-12.3h.1a25.7,25.7,0,0,1-.8-4,17.9,17.9,0,0,1-.2-2.3,1.4,1.4,0,0,0,0-1.1c2-1.3,4.2-2.2,6-3.5l-.2.8V66c-.1,1-.2,2.7-.4,4.4h0v.4l-.2.8-.5,2.6-.3,1.4,2.4,2.1h.1c0,.1.1.2.1.3a34.4,34.4,0,0,1,2.5,5.6c.7,1.5,1.7,3.2,1.7,3.2l-.2.3A6.8,6.8,0,0,1,294.7,88.2Z" fill="#0e092c"/><path d="M298,59l-1.2.9a8,8,0,0,1-3.1,1.7c.6-2.1-.1-5-.3-7.1s-.1-1.9-.2-2.9-.1-.4-.1-.6a15,15,0,0,1-.1-4.7,42.1,42.1,0,0,1,3.8,5.3h0a.3.3,0,0,0,.1.2,16.3,16.3,0,0,0-.1,3A18.6,18.6,0,0,0,298,59Z" fill="#0a0423"/><path d="M300.7,61.1c-.8-2.4-2-5.3-3-7.7h0a11.9,11.9,0,0,0-.8-1.6.3.3,0,0,1-.1-.2h0a42.1,42.1,0,0,0-3.8-5.3,15.1,15.1,0,0,1,1-3h0c.4-.8,1.4-1.8,2.1-1.6h0l.5.4a.1.1,0,0,0,.1.1c.9,1.1,2,3.6,2.6,4.5a26.1,26.1,0,0,1,3.5,6.6,38,38,0,0,1,1.8,7h-.3a5.9,5.9,0,0,0-3,.4C301,60.7,300.9,60.9,300.7,61.1Z" fill="#1b1840"/><path d="M296.6,67.9l-1,5.1-1,4.7-2.4-2.1.8-4,.2-.8v-.4h0l.9-4.4Z" fill="#bc3823"/><path d="M294.2,66h0l5.5-1.1c0,.3-.1.6-.1,1a1.4,1.4,0,0,0,.9-.1h0a3.1,3.1,0,0,0,.1-1.1l3.7-.7a3.6,3.6,0,0,1-.2,1c.4.3.7,0,.9-.3a2.9,2.9,0,0,1,.2-.9l3.2-.6,2.9,1.7-14.7,3Z" fill="#a8311c"/><path d="M294.6,77.7l1-4.7,6.5-1.3v.7l1.6-.3v-.7l6.6-1.3-.9,4.4-14.7,3.3h-.1Z" fill="#a8311c"/><polygon points="304 70 302.4 70.3 302.1 71.7 295.6 73 296.6 67.9 311.3 64.9 310.3 70.1 303.7 71.4 304 70" fill="#de5d3f"/><path d="M293.1,92.2Z" fill="#ef3d29"/><path d="M298.6,88.6a11.4,11.4,0,0,1-2.3,2.7l-2,1.2-.8.2h-.1l-.3-.5H293l-.5-.7h.3c0-.1,0-.1.1-.1a6.2,6.2,0,0,0,.8-1.2,3.1,3.1,0,0,0,.4-1.8h.6a6.8,6.8,0,0,0,4.1-1h0A2.1,2.1,0,0,1,298.6,88.6Z" fill="#1b181a"/><path d="M293.9,93.4l-.5-.7h.1l.8-.2,2-1.2a11.4,11.4,0,0,0,2.3-2.7,2.1,2.1,0,0,0,.2-1.3,2.6,2.6,0,0,1,.7,1.1h0a3,3,0,0,1-.8,1.6h0c-.6-.4-.8.3-.8.8h0l-.3.3a7.6,7.6,0,0,1-2.5,2l-1.1.2Z"/><path d="M300.6,62.9l.7-.3a1.1,1.1,0,0,1-.1.8c-.2,0-.3.2-.4.4s-.1.6-.2.9a3.1,3.1,0,0,1-.1,1.1h0a1.4,1.4,0,0,1-.9.1c0-.4.1-.7.1-1S299.9,63.3,300.6,62.9Z" fill="#631301"/><path d="M302.7,64.2h-1.4l-.5-.4c.1-.2.2-.4.4-.4a1.1,1.1,0,0,0,.1-.8l-.7.3a6.2,6.2,0,0,1,.8-1.2h0a5.3,5.3,0,0,1,3-.4h0a3.7,3.7,0,0,1,.1,1.1c-.1.3-.1.7-.2,1.1S303.3,64.2,302.7,64.2Z" fill="#fbb686"/><path d="M301.3,60.6a5.9,5.9,0,0,1,3-.4c0,.3.1.8.1,1a5.3,5.3,0,0,0-3,.4C301.4,61.3,301.3,60.9,301.3,60.6Z" fill="#cce6f3"/><polygon points="304 70 303.7 71.4 303.6 72.1 302 72.4 302.1 71.7 302.4 70.3 304 70" fill="#9eabc0"/><path d="M305,64.7c-.2.3-.5.6-.9.3a3.6,3.6,0,0,0,.2-1,1.7,1.7,0,0,0,.1-.7h0c0,.1,0,.1-.1.2s.1-.8.2-1.1.8.5.7,1.4A2.9,2.9,0,0,0,305,64.7Z" fill="#631301"/><path d="M280.4,67.1l2.9,3-1,5.9-.8,2.2S279.7,68.3,280.4,67.1Z" fill="#0e092c"/><path d="M280.1,84.6l-1.9,1s-1,1.9,1.6,1.4Z" fill="#1b181a"/><path d="M291.9,91.8s-.9,1.6,2,1.6l.5-1Z"/><path d="M278.2,85.6h0s-1.2,1.2-.5,1.5a8.7,8.7,0,0,0,2.4.6V87S277.4,86.9,278.2,85.6Z"/><path d="M291.9,91.8l.7-.5,1.8,1.1S291.6,92.9,291.9,91.8Z" fill="#1b181a"/><path d="M253.9,58.2l-.5.2h-1.5c-.1,0-.2,0-.2.1l-.8,1.6h-.2c-.1.1-.1-.1-.2-.2s-.5-.9-.7-1.4h-1.2c-.5.1-.7-.1-.7-.6l-.3-3.5c0-.5-.1-1.1-.1-1.7h.1c.3-.3.5-.3.9,0l5.2,4.6a.6.6,0,0,1,.3.6Z" fill="#d9e62b"/><path d="M250.5,57.9c-.2-.7-.6-1.4-.8-2.2h.2c.5.7,1.1,1.3,1.7,2h1.6l-5.1-4.5.4,4.8Z" fill="#eff431"/><path d="M356.9,112.8c0,.2-.2.2-.3.3l-1,.5a.1.1,0,0,0-.1.1c-.1.5-.1.9-.2,1.3s0,.2-.1.2H355l-.9-.9-.9.4a.4.4,0,0,1-.6-.3l-1.2-2.4-.6-1.2v-.2c.2-.3.4-.3.7-.2l5.1,1.8c.2.1.3.2.3.4Z" fill="#d9e62b"/><path d="M354.4,113.6l-1.2-1.4h.2l1.7.9c.1.1.2.1.2,0l1-.4-4.9-1.8,1.6,3.3Z" fill="#eff431"/></g></g></svg>