<svg id="Layer_1" data-name="Layer 1" xmlns="http://www.w3.org/2000/svg" viewBox="0 0 48 48"><title>enquiry-specifications</title><path d="M0,20.7A3.6,3.6,0,0,1,3.7,18c.3,0,.7-.4.9-.6a.4.4,0,0,0,.1-.3c.6-1,.8-1.9-.2-2.8a3,3,0,0,1,.1-4.1A17.2,17.2,0,0,1,7.3,7.5a2.9,2.9,0,0,1,4.3.1,1.7,1.7,0,0,0,2.1.3c1.1-.4,1.5-.8,1.5-2A2.9,2.9,0,0,1,18.1,3a21.6,21.6,0,0,1,3.6,0A3.2,3.2,0,0,1,25,6.2c0,.6-.2,1.2.7,1.4s1.6,1.3,2.7.1A3,3,0,0,1,33,7.6l2.1,2.1c1.7,1.7,1.7,3.5.1,5.2-.2.2-.4.3-.5.5s.2.4.2.6.9,2.4,2.6,2.2,1.2.5,1.7,1l-3.2.9a3.5,3.5,0,0,0-3,3,12.2,12.2,0,0,1-4.7,8.3c-1.7,1.4-3.1,3.2-4.8,4.7s-3.3,3.9-2.3,6.8c-1.3,0-2.5.1-3.6,0A2.8,2.8,0,0,1,15.2,40c0-1.1-.4-1.7-1.4-1.9l-1.2-.5h-.2c-2.4,2.2-3.8,2.2-6.1-.2L4.8,36.1a3.4,3.4,0,0,1,0-4.9c.3-.4.9-.7.4-1.4s-.2-2-1.8-1.9S.7,26.9,0,25.4Z" fill="#007b6b"/><path d="M20.1,14.1A8.9,8.9,0,1,0,29,23,8.9,8.9,0,0,0,20.1,14.1Z" fill="#defcf8"/><path d="M48,26.5c-.4,1.4-.9,2.9-1.3,4.4s-.8,1.9-2,2h-.3c-3.5.3-6.1,2.1-8.4,4.7s-3.9,4-5.9,6a3.9,3.9,0,0,1-5.8.1c-1.7-1.7-1.7-3.9.1-5.8s6-5.9,8.9-8.9a2.9,2.9,0,0,0,.8-1.4c.4-1.4.8-2.9,1.1-4.3A2.2,2.2,0,0,1,37,21.5l4.4-1.2a2.2,2.2,0,0,1,1.1-.1,2.9,2.9,0,0,1,1.3.8c.1.1-.3.8-.6,1.1S42,23.3,41.4,24a1.9,1.9,0,0,0,0,2.8,2,2,0,0,0,2.8-.1l1.6-1.6c1.2-1.2,1.4-1.2,2.2.3Z" fill="#00a89a"/><path d="M35.6,33.5c-.2-.3-.4-.7-.6-.7a1.1,1.1,0,0,0-1.1.3c-1.5,1.3-2.8,2.8-4.2,4.2s-.7.9-.2,1.4,1,.2,1.4-.2L35,34.3Z" fill="#defcf8"/><path d="M27.9,38.6c-.5.8-1.1,1.2-1.1,1.7s.6.9,1.1,1A.9.9,0,0,0,29,40.2C28.9,39.8,28.4,39.4,27.9,38.6Z" fill="#defcf8"/></svg>