<svg xmlns="http://www.w3.org/2000/svg" viewBox="0 0 64 56.2"><title>Asset 5ldpi</title><g id="Layer_2" data-name="Layer 2"><g id="Layer_1-2" data-name="Layer 1"><path d="M0,23.7a4.7,4.7,0,0,1,5-3.6c.4,0,.8-.5,1.2-.9s.1-.2.1-.4,1-2.4-.4-3.7-1.2-3.9.2-5.5L9.7,6a4.1,4.1,0,0,1,5.8.2c.9.9,1.6.8,2.8.4s2-1.1,1.9-2.7a4.1,4.1,0,0,1,4-3.9h4.7a4.3,4.3,0,0,1,4.4,4.4c0,.7-.2,1.6.9,1.8s2.2,1.7,3.6.1A4.2,4.2,0,0,1,44,6.2L46.9,9c2.1,2.3,2.1,4.7,0,6.9l-.7.8c.1.3.3.5.4.8s1.1,3.1,3.4,2.8c.7-.1,1.5.7,2.3,1.4l-4.4,1.1c-2.1.6-3.6,1.8-3.8,4a16.8,16.8,0,0,1-6.3,11.1c-2.3,1.9-4.2,4.3-6.4,6.3s-4.4,5.2-3.2,9.1a36.1,36.1,0,0,1-4.7-.1,3.8,3.8,0,0,1-3.3-3.7c.1-1.5-.4-2.3-1.8-2.6a7.7,7.7,0,0,1-1.6-.7h-.3c-3.2,3-5,2.9-8.2-.2L6.4,44.2a4.4,4.4,0,0,1,0-6.5c.4-.5,1.2-.9.5-1.8s-.3-2.8-2.4-2.6S.9,31.9,0,29.9Z" fill="#007b6b"/><path d="M26.8,14.8a11.9,11.9,0,1,0-.2,23.8A12.1,12.1,0,0,0,38.7,26.8,12.1,12.1,0,0,0,26.8,14.8Z" fill="#defcf8"/><path d="M64,31.3c-.6,2-1.2,4-1.7,6A3.2,3.2,0,0,1,59.6,40h-.4c-4.7.4-8.2,2.7-11.2,6.2a99.4,99.4,0,0,1-7.9,8c-2.4,2.4-5.5,2.5-7.8.2s-2.1-5.3.3-7.7L44.4,34.9A4.5,4.5,0,0,0,45.5,33c.5-1.9,1-3.8,1.4-5.8a3.1,3.1,0,0,1,2.4-2.5l5.9-1.6a3.9,3.9,0,0,1,1.5-.1,4.2,4.2,0,0,1,1.8,1.1c.1.1-.5,1-.8,1.4l-2.5,2.6a2.5,2.5,0,0,0,0,3.7,2.6,2.6,0,0,0,3.7-.1c.8-.7,1.5-1.5,2.2-2.2s1.8-1.6,2.9.4Z" fill="#00a89a"/><path d="M47.4,40.8c-.2-.4-.5-1-.7-1a1.9,1.9,0,0,0-1.5.4l-5.7,5.6c-.6.6-.9,1.2-.2,1.9s1.3.2,1.9-.3l5.5-5.6Z" fill="#defcf8"/><path d="M37.2,47.6c-.7,1-1.5,1.6-1.5,2.2a2.4,2.4,0,0,0,1.4,1.4,1.3,1.3,0,0,0,1.5-1.5C38.5,49.1,37.9,48.6,37.2,47.6Z" fill="#defcf8"/></g></g></svg>